<?xml version="1.0" encoding="UTF-8"?>
<svg version="1.1" xmlns="http://www.w3.org/2000/svg" width="500" height="500">
<path d="M0 0 C1.1956105 -0.00392761 1.1956105 -0.00392761 2.41537476 -0.00793457 C16.60644417 -0.01291059 30.17267524 1.2693459 44.0625 4.3125 C44.78050781 4.46203125 45.49851562 4.6115625 46.23828125 4.765625 C92.63145267 14.64819406 133.21465915 47.08737678 158.69384766 86.16796875 C185.38347937 127.98775558 193.36796507 177.74412182 182.875 226.0625 C171.62249519 274.48942317 142.13372749 316.070483 100.01464844 342.56738281 C57.74495353 368.48044538 6.840582 376.98955989 -41.5 365.625 C-78.56274496 356.43447322 -114.59247796 336.28347251 -138.9375 306.3125 C-139.75734375 305.33023437 -140.5771875 304.34796875 -141.421875 303.3359375 C-167.85378854 271.13939015 -181.9299469 231.78560917 -183.9375 190.3125 C-183.98003906 189.45785156 -184.02257812 188.60320312 -184.06640625 187.72265625 C-185.23952338 138.21711325 -164.75800821 90.85266184 -130.94921875 55.39453125 C-111.05935002 34.90483973 -87.49633794 20.52561804 -60.9375 10.3125 C-60.29248535 10.06129395 -59.6474707 9.81008789 -58.98291016 9.55126953 C-40.14325544 2.34066065 -20.03420375 0.0627975 0 0 Z " fill="#EEFEFB" transform="translate(246.9375,63.6875)"/>
<path d="M0 0 C4.26799757 -0.24911983 8.53205051 -0.42947331 12.80517578 -0.54931641 C14.25481912 -0.59930411 15.70396581 -0.6673306 17.15185547 -0.75439453 C29.12890195 -1.45601338 29.12890195 -1.45601338 33.62695312 2.04418945 C35.68701844 4.59739132 37.36513064 7.15920162 39 10 C39.81150475 11.15265071 40.63258874 12.29870258 41.46875 13.43359375 C42.1390625 14.42488281 42.809375 15.41617188 43.5 16.4375 C46.21448112 20.41788297 48.96415691 24.36375136 51.8125 28.25 C55.15738684 32.81781977 58.43074568 37.4317696 61.6875 42.0625 C65.94399752 48.1089995 70.23308487 54.13047527 74.5625 60.125 C75.28409302 61.12478882 75.28409302 61.12478882 76.02026367 62.14477539 C81.31068738 69.4566511 86.6626271 76.72176423 92 84 C92.33 67.83 92.66 51.66 93 35 C90.69 35 88.38 35 86 35 C86 34.34 86 33.68 86 33 C88.31 33 90.62 33 93 33 C92.93121386 29.04840742 92.84329572 25.09775377 92.73754883 21.14697266 C92.68790041 19.14117664 92.65345836 17.13502313 92.61914062 15.12890625 C92.58369141 13.87207031 92.54824219 12.61523438 92.51171875 11.3203125 C92.48553467 10.15773926 92.45935059 8.99516602 92.43237305 7.79736328 C92.28968994 6.8742334 92.14700684 5.95110352 92 5 C88.55549263 2.70366176 86.06187717 2.45983515 82 2 C82 1.34 82 0.68 82 0 C90.25 0 98.5 0 107 0 C107 0.66 107 1.32 107 2 C105.72125 2.12375 104.4425 2.2475 103.125 2.375 C99.65209064 2.69042399 99.65209064 2.69042399 97 5 C96.62731113 7.91188245 96.62731113 7.91188245 96.5859375 11.3203125 C96.52792969 13.20556641 96.52792969 13.20556641 96.46875 15.12890625 C96.4378125 16.44761719 96.406875 17.76632813 96.375 19.125 C96.33681971 20.46486918 96.29776794 21.80471383 96.2578125 23.14453125 C96.16328242 26.42945148 96.08054267 29.71470706 96 33 C103.26 33 110.52 33 118 33 C124.96106426 48.6623946 131.34195251 64.44543988 137.5 80.4375 C139.15499206 84.72835086 140.81148063 89.01862199 142.46875 93.30859375 C143.06124542 94.84327805 143.06124542 94.84327805 143.66571045 96.40896606 C146.34311852 103.33309594 149.06864954 110.23565097 151.85058594 117.1184082 C152.86001633 119.64905964 153.8182619 122.1900067 154.75 124.75 C155.89379959 128.07799092 155.89379959 128.07799092 158 131 C158.34554932 130.05833984 158.69109863 129.11667969 159.04711914 128.14648438 C166.54351397 107.72570205 174.09848879 87.32820344 181.76000977 66.96875 C182.34913894 65.40235046 182.93825053 63.83594431 183.52734375 62.26953125 C183.81112381 61.51588287 184.09490387 60.7622345 184.38728333 59.98574829 C185.93135426 55.87680838 187.45660727 51.76167366 188.96142578 47.63818359 C189.2823671 46.75998459 189.60330841 45.88178558 189.93397522 44.97697449 C190.55271675 43.28087312 191.1690519 41.58389151 191.78269958 39.88594055 C193.88981972 34.11018028 193.88981972 34.11018028 195 33 C197.3756852 32.9116033 199.72208674 32.88469695 202.09765625 32.90234375 C203.16094398 32.90446617 203.16094398 32.90446617 204.24571228 32.90663147 C206.51801712 32.91224557 208.79022475 32.92480037 211.0625 32.9375 C212.59960796 32.94251319 214.13671745 32.94707641 215.67382812 32.95117188 C219.44925642 32.96221958 223.22461171 32.97949359 227 33 C227 33.66 227 34.32 227 35 C225.93458984 35.18175781 225.93458984 35.18175781 224.84765625 35.3671875 C223.92855469 35.53476563 223.00945312 35.70234375 222.0625 35.875 C221.14597656 36.03742188 220.22945313 36.19984375 219.28515625 36.3671875 C218.53105469 36.57601562 217.77695312 36.78484375 217 37 C215.33650681 40.32698637 215.75621943 44.06429385 215.68359375 47.7265625 C215.6524221 49.02078629 215.6524221 49.02078629 215.62062073 50.34115601 C215.55513966 53.10235493 215.49624702 55.86365038 215.4375 58.625 C215.3943134 60.49480172 215.35069907 62.36459362 215.30664062 64.234375 C215.19945976 68.82281728 215.09818825 73.41135683 215 78 C215.61826157 77.83865067 216.23652313 77.67730133 216.8735199 77.51106262 C228.91583155 74.61690182 241.79558909 76.78609928 252.3125 82.9375 C253.199375 83.618125 254.08625 84.29875 255 85 C255.99 85.721875 256.98 86.44375 258 87.1875 C265.87828721 93.95210263 271.27890468 105.25709125 272.23828125 115.55859375 C272.54330619 127.3903507 269.47777668 137.75739525 262 147 C261.52175781 147.61359375 261.04351562 148.2271875 260.55078125 148.859375 C254.98182504 155.19984907 245.35429402 160.43362685 237 162 C234.66798085 162.08430706 232.33350554 162.10689988 230 162.09375 C229.30503418 162.09016479 228.61006836 162.08657959 227.89404297 162.08288574 C218.92689383 162.01615117 209.96334849 161.75497116 201 161.5 C199.24219299 161.45162297 197.4843805 161.40344484 195.7265625 161.35546875 C191.48430853 161.2392622 187.24213697 161.12039882 183 161 C183 160.34 183 159.68 183 159 C183.62648438 158.89042969 184.25296875 158.78085937 184.8984375 158.66796875 C185.71570313 158.50941406 186.53296875 158.35085938 187.375 158.1875 C188.18710937 158.03667969 188.99921875 157.88585937 189.8359375 157.73046875 C192.35820641 157.12455058 192.35820641 157.12455058 194 154 C194.29042575 151.43288239 194.29042575 151.43288239 194.22705078 148.51879883 C194.22689972 147.39786331 194.22674866 146.2769278 194.22659302 145.12202454 C194.21110916 143.30785286 194.21110916 143.30785286 194.1953125 141.45703125 C194.1924826 140.21829758 194.18965271 138.9795639 194.18673706 137.70329285 C194.17743186 134.41361913 194.15946791 131.12414137 194.1373291 127.83453369 C194.1168527 124.47630206 194.10773152 121.11804172 194.09765625 117.75976562 C194.07558271 111.17310027 194.04209522 104.58656617 194 98 C191.94733791 100.81931115 189.89910339 103.64181166 187.8515625 106.46484375 C186.99220093 107.64500061 186.99220093 107.64500061 186.11547852 108.84899902 C180.91326774 116.0292297 176.08569105 123.41683143 171.33398438 130.89990234 C160.21928706 148.39782078 148.92213369 165.77067616 136 182 C135.32195312 182.88300781 134.64390625 183.76601563 133.9453125 184.67578125 C124.19923184 197.08824246 112.64252829 208.55021471 100 218 C98.99839844 218.75667969 97.99679688 219.51335937 96.96484375 220.29296875 C75.24615964 236.04759137 50.95985947 241.52748421 24.26953125 237.375 C3.53590671 233.24660152 -16.89885042 219.24749713 -28.64306641 201.86816406 C-35.82698591 190.7758324 -39.98915262 179.78134232 -43 167 C-43.19722656 166.21367187 -43.39445312 165.42734375 -43.59765625 164.6171875 C-47.09907049 141.84099778 -40.8960315 118.83827261 -28 100 C-24.66666338 95.667263 -20.9157249 91.80484744 -17 88 C-16.31035156 87.32453125 -15.62070313 86.6490625 -14.91015625 85.953125 C-7.3942966 79.00595002 5.33427413 69 16 69 C16.00831171 61.26301208 15.98441762 53.52668758 15.9197216 45.78997517 C15.89068274 42.19712871 15.87262429 38.60493391 15.87988281 35.01196289 C15.88648397 31.54255978 15.86395053 28.07444343 15.82144547 24.60530663 C15.80492698 22.64174785 15.81836614 20.67801097 15.83224487 18.71443176 C15.93088606 12.58677179 15.93088606 12.58677179 13.70071411 7.08049011 C10.83876832 4.61039132 7.8223897 3.30373162 4.125 2.6875 C3.34382813 2.54699219 2.56265625 2.40648437 1.7578125 2.26171875 C1.17773438 2.17535156 0.59765625 2.08898437 0 2 C0 1.34 0 0.68 0 0 Z " fill="#EDFEFB" transform="translate(141,126)"/>
<path d="M0 0 C0.69754395 0.13390137 1.39508789 0.26780273 2.11376953 0.40576172 C53.60729694 10.38981815 101.10426258 40.6193275 132 83 C132.7425 83.99773437 133.485 84.99546875 134.25 86.0234375 C158.45850253 119.65596423 172.91022419 160.44637457 174 202 C174.02046387 202.69689941 174.04092773 203.39379883 174.06201172 204.11181641 C175.5271808 260.72062194 154.20645227 315.36655516 115.39404297 356.46142578 C79.00250959 394.3499857 28.48119803 420.09156965 -24.5625 422.625 C-25.21412109 422.66367187 -25.86574219 422.70234375 -26.53710938 422.7421875 C-49.39824453 423.97435648 -71.80847949 421.45946365 -94 416 C-94.77778809 415.81066895 -95.55557617 415.62133789 -96.35693359 415.42626953 C-132.11877187 406.47183113 -163.61039311 386.21277307 -190 361 C-190.72703125 360.32582031 -191.4540625 359.65164063 -192.203125 358.95703125 C-198.53467479 352.92146855 -203.74954512 345.96851628 -209 339 C-209.65452148 338.13665039 -209.65452148 338.13665039 -210.32226562 337.25585938 C-216.6351751 328.87377168 -222.04726332 320.17005986 -226.98144531 310.91113281 C-227.92006766 309.14997851 -228.87716653 307.39870451 -229.8359375 305.6484375 C-255.41593001 257.15062365 -258.83384274 197.96114373 -243 146 C-234.93335355 120.45781998 -222.80124211 97.80214075 -206 77 C-205.57493164 76.47051758 -205.14986328 75.94103516 -204.71191406 75.39550781 C-194.02174026 62.16350186 -182.24623052 50.34323292 -168.5859375 40.18457031 C-167.15796311 39.11798599 -165.74952507 38.02536512 -164.34375 36.9296875 C-139.31899845 17.85217629 -109.51535145 6.54676071 -79 0 C-78.16903809 -0.18079102 -77.33807617 -0.36158203 -76.48193359 -0.54785156 C-52.20272215 -5.56632017 -24.21461066 -5.01990237 0 0 Z M-83 19 C-83.87914062 19.21430664 -84.75828125 19.42861328 -85.6640625 19.64941406 C-129.67319296 30.54072265 -170.53815021 56.96837256 -197 94 C-197.59844727 94.82395264 -197.59844727 94.82395264 -198.20898438 95.66455078 C-214.80762568 118.6981726 -227.12904135 145.94895542 -232 174 C-232.17442627 174.95527588 -232.34885254 175.91055176 -232.52856445 176.89477539 C-234.23920749 187.29010465 -234.35720731 197.55018587 -234.3125 208.0625 C-234.31034485 208.97174225 -234.3081897 209.8809845 -234.30596924 210.81777954 C-234.25552144 224.06761676 -233.99275701 237.03407522 -231 250 C-230.80132324 250.87495117 -230.60264648 251.74990234 -230.39794922 252.65136719 C-218.34225566 304.03481015 -187.1482491 348.77430596 -142.25 376.6875 C-114.4679216 393.34355175 -82.16077359 405.00457489 -49.4765625 405.203125 C-48.3073954 405.21371445 -48.3073954 405.21371445 -47.11460876 405.22451782 C-23.88441316 405.5006769 -23.88441316 405.5006769 -1 402 C-0.11957031 401.80132324 0.76085937 401.60264648 1.66796875 401.39794922 C53.02601096 389.70576192 97.96095358 359.18446625 126.25 314.5 C138.86536899 293.15500858 148.38146291 270.8807264 153.3125 246.5 C153.47186035 245.71214111 153.6312207 244.92428223 153.79541016 244.11254883 C163.15489525 194.84368269 150.7057969 141.99850948 123.18359375 100.5546875 C98.35552387 64.41460187 63.20375601 38.32028194 22 24 C21.27055176 23.74589355 20.54110352 23.49178711 19.78955078 23.22998047 C14.9151688 21.57294393 10.00411276 20.2064154 5 19 C4.2054541 18.80390137 3.4109082 18.60780273 2.59228516 18.40576172 C-24.34565081 12.07625246 -56.18865052 12.14055428 -83 19 Z " fill="#EFFEFB" transform="translate(288,39)"/>
<path d="M0 0 C4.26799757 -0.24911983 8.53205051 -0.42947331 12.80517578 -0.54931641 C14.25481912 -0.59930411 15.70396581 -0.6673306 17.15185547 -0.75439453 C29.12890195 -1.45601338 29.12890195 -1.45601338 33.62695312 2.04418945 C35.68701844 4.59739132 37.36513064 7.15920162 39 10 C39.81150475 11.15265071 40.63258874 12.29870258 41.46875 13.43359375 C42.1390625 14.42488281 42.809375 15.41617188 43.5 16.4375 C46.21448112 20.41788297 48.96415691 24.36375136 51.8125 28.25 C55.15738684 32.81781977 58.43074568 37.4317696 61.6875 42.0625 C65.94399752 48.1089995 70.23308487 54.13047527 74.5625 60.125 C75.28409302 61.12478882 75.28409302 61.12478882 76.02026367 62.14477539 C81.31068738 69.4566511 86.6626271 76.72176423 92 84 C92.33 67.83 92.66 51.66 93 35 C90.69 35 88.38 35 86 35 C86 34.34 86 33.68 86 33 C88.31 33 90.62 33 93 33 C92.93121386 29.04840742 92.84329572 25.09775377 92.73754883 21.14697266 C92.68790041 19.14117664 92.65345836 17.13502313 92.61914062 15.12890625 C92.58369141 13.87207031 92.54824219 12.61523438 92.51171875 11.3203125 C92.48553467 10.15773926 92.45935059 8.99516602 92.43237305 7.79736328 C92.28968994 6.8742334 92.14700684 5.95110352 92 5 C88.55549263 2.70366176 86.06187717 2.45983515 82 2 C82 1.34 82 0.68 82 0 C90.25 0 98.5 0 107 0 C107 0.66 107 1.32 107 2 C105.72125 2.12375 104.4425 2.2475 103.125 2.375 C99.65209064 2.69042399 99.65209064 2.69042399 97 5 C96.62731113 7.91188245 96.62731113 7.91188245 96.5859375 11.3203125 C96.52792969 13.20556641 96.52792969 13.20556641 96.46875 15.12890625 C96.4378125 16.44761719 96.406875 17.76632813 96.375 19.125 C96.33681971 20.46486918 96.29776794 21.80471383 96.2578125 23.14453125 C96.16328242 26.42945148 96.08054267 29.71470706 96 33 C103.26 33 110.52 33 118 33 C124.96106426 48.6623946 131.34195251 64.44543988 137.5 80.4375 C139.15499206 84.72835086 140.81148063 89.01862199 142.46875 93.30859375 C143.06124542 94.84327805 143.06124542 94.84327805 143.66571045 96.40896606 C146.34311852 103.33309594 149.06864954 110.23565097 151.85058594 117.1184082 C152.86001633 119.64905964 153.8182619 122.1900067 154.75 124.75 C155.89379959 128.07799092 155.89379959 128.07799092 158 131 C158.34554932 130.05833984 158.69109863 129.11667969 159.04711914 128.14648438 C166.54351397 107.72570205 174.09848879 87.32820344 181.76000977 66.96875 C182.34913894 65.40235046 182.93825053 63.83594431 183.52734375 62.26953125 C183.81112381 61.51588287 184.09490387 60.7622345 184.38728333 59.98574829 C185.93135426 55.87680838 187.45660727 51.76167366 188.96142578 47.63818359 C189.2823671 46.75998459 189.60330841 45.88178558 189.93397522 44.97697449 C190.55271675 43.28087312 191.1690519 41.58389151 191.78269958 39.88594055 C193.88981972 34.11018028 193.88981972 34.11018028 195 33 C197.3756852 32.9116033 199.72208674 32.88469695 202.09765625 32.90234375 C203.16094398 32.90446617 203.16094398 32.90446617 204.24571228 32.90663147 C206.51801712 32.91224557 208.79022475 32.92480037 211.0625 32.9375 C212.59960796 32.94251319 214.13671745 32.94707641 215.67382812 32.95117188 C219.44925642 32.96221958 223.22461171 32.97949359 227 33 C227 33.66 227 34.32 227 35 C225.93458984 35.18175781 225.93458984 35.18175781 224.84765625 35.3671875 C223.92855469 35.53476563 223.00945312 35.70234375 222.0625 35.875 C221.14597656 36.03742188 220.22945313 36.19984375 219.28515625 36.3671875 C218.53105469 36.57601562 217.77695312 36.78484375 217 37 C215.33650681 40.32698637 215.75621943 44.06429385 215.68359375 47.7265625 C215.6524221 49.02078629 215.6524221 49.02078629 215.62062073 50.34115601 C215.55513966 53.10235493 215.49624702 55.86365038 215.4375 58.625 C215.3943134 60.49480172 215.35069907 62.36459362 215.30664062 64.234375 C215.19945976 68.82281728 215.09818825 73.41135683 215 78 C215.61826157 77.83865067 216.23652313 77.67730133 216.8735199 77.51106262 C228.91583155 74.61690182 241.79558909 76.78609928 252.3125 82.9375 C253.199375 83.618125 254.08625 84.29875 255 85 C255.99 85.721875 256.98 86.44375 258 87.1875 C265.87828721 93.95210263 271.27890468 105.25709125 272.23828125 115.55859375 C272.54330619 127.3903507 269.47777668 137.75739525 262 147 C261.52175781 147.61359375 261.04351562 148.2271875 260.55078125 148.859375 C254.98182504 155.19984907 245.35429402 160.43362685 237 162 C234.66798085 162.08430706 232.33350554 162.10689988 230 162.09375 C229.30503418 162.09016479 228.61006836 162.08657959 227.89404297 162.08288574 C218.92689383 162.01615117 209.96334849 161.75497116 201 161.5 C199.24219299 161.45162297 197.4843805 161.40344484 195.7265625 161.35546875 C191.48430853 161.2392622 187.24213697 161.12039882 183 161 C183 160.34 183 159.68 183 159 C183.62648438 158.89042969 184.25296875 158.78085937 184.8984375 158.66796875 C185.71570313 158.50941406 186.53296875 158.35085938 187.375 158.1875 C188.18710937 158.03667969 188.99921875 157.88585937 189.8359375 157.73046875 C192.35820641 157.12455058 192.35820641 157.12455058 194 154 C194.29042575 151.43288239 194.29042575 151.43288239 194.22705078 148.51879883 C194.22689972 147.39786331 194.22674866 146.2769278 194.22659302 145.12202454 C194.21110916 143.30785286 194.21110916 143.30785286 194.1953125 141.45703125 C194.1924826 140.21829758 194.18965271 138.9795639 194.18673706 137.70329285 C194.17743186 134.41361913 194.15946791 131.12414137 194.1373291 127.83453369 C194.1168527 124.47630206 194.10773152 121.11804172 194.09765625 117.75976562 C194.07558271 111.17310027 194.04209522 104.58656617 194 98 C191.94733791 100.81931115 189.89910339 103.64181166 187.8515625 106.46484375 C186.99220093 107.64500061 186.99220093 107.64500061 186.11547852 108.84899902 C180.91326774 116.0292297 176.08569105 123.41683143 171.33398438 130.89990234 C160.21928706 148.39782078 148.92213369 165.77067616 136 182 C135.32195312 182.88300781 134.64390625 183.76601563 133.9453125 184.67578125 C124.19923184 197.08824246 112.64252829 208.55021471 100 218 C98.99839844 218.75667969 97.99679688 219.51335937 96.96484375 220.29296875 C75.24615964 236.04759137 50.95985947 241.52748421 24.26953125 237.375 C3.53590671 233.24660152 -16.89885042 219.24749713 -28.64306641 201.86816406 C-35.82698591 190.7758324 -39.98915262 179.78134232 -43 167 C-43.19722656 166.21367187 -43.39445312 165.42734375 -43.59765625 164.6171875 C-47.09907049 141.84099778 -40.8960315 118.83827261 -28 100 C-24.66666338 95.667263 -20.9157249 91.80484744 -17 88 C-16.31035156 87.32453125 -15.62070313 86.6490625 -14.91015625 85.953125 C-7.3942966 79.00595002 5.33427413 69 16 69 C16.00831171 61.26301208 15.98441762 53.52668758 15.9197216 45.78997517 C15.89068274 42.19712871 15.87262429 38.60493391 15.87988281 35.01196289 C15.88648397 31.54255978 15.86395053 28.07444343 15.82144547 24.60530663 C15.80492698 22.64174785 15.81836614 20.67801097 15.83224487 18.71443176 C15.93088606 12.58677179 15.93088606 12.58677179 13.70071411 7.08049011 C10.83876832 4.61039132 7.8223897 3.30373162 4.125 2.6875 C3.34382813 2.54699219 2.56265625 2.40648437 1.7578125 2.26171875 C1.17773438 2.17535156 0.59765625 2.08898437 0 2 C0 1.34 0 0.68 0 0 Z M18 14 C18 31.82 18 49.64 18 68 C21.3 67.34 24.6 66.68 28 66 C30.81923401 65.80283286 33.50281899 65.67371354 36.3125 65.6875 C36.98861328 65.67138672 37.66472656 65.65527344 38.36132812 65.63867188 C42.72461115 65.63441501 45.58818362 66.22505601 49 69 C49.53544229 72.21265373 49.56570175 74.05716375 47.875 76.875 C45.08893958 78.54663625 43.18011138 78.46376624 40 78 C38.0625 76.4375 38.0625 76.4375 37 74 C37.3125 70.25 37.3125 70.25 38 67 C35.97840511 67.08815978 33.95767973 67.19634536 31.9375 67.3125 C30.81214844 67.37050781 29.68679687 67.42851562 28.52734375 67.48828125 C25.63067572 67.90850662 23.86943088 68.37267268 21.27954102 69.53198242 C20.19729248 70.01642822 19.11504395 70.50087402 18 71 C17.92571238 76.46261638 17.87133286 81.92493716 17.83520508 87.38793945 C17.82014054 89.24541345 17.79968491 91.10285201 17.77368164 92.96020508 C17.73719541 95.63371539 17.7202503 98.30675444 17.70703125 100.98046875 C17.69154739 101.80773972 17.67606354 102.63501068 17.66011047 103.48735046 C17.65875628 108.15144877 17.9575915 111.21513472 21 115 C23.95664519 116.4783226 26.74229737 116.06032783 30 116 C30 116.66 30 117.32 30 118 C21.75 118 13.5 118 5 118 C5 117.34 5 116.68 5 116 C5.62648437 115.96261719 6.25296875 115.92523438 6.8984375 115.88671875 C7.71570313 115.82097656 8.53296875 115.75523437 9.375 115.6875 C10.18710938 115.62949219 10.99921875 115.57148438 11.8359375 115.51171875 C14.37921338 115.17009472 14.37921338 115.17009472 16 112 C16.28763265 110.08379666 16.28763265 110.08379666 16.22705078 107.98754883 C16.22682419 106.7866436 16.22682419 106.7866436 16.22659302 105.56147766 C16.21627045 104.70201035 16.20594788 103.84254303 16.1953125 102.95703125 C16.19106766 101.63163582 16.19106766 101.63163582 16.18673706 100.27946472 C16.17554097 97.45700546 16.15043751 94.63486338 16.125 91.8125 C16.11496946 89.89909312 16.10584374 87.98568127 16.09765625 86.07226562 C16.07560351 81.38138818 16.04107762 76.69074787 16 72 C-0.22845318 74.10150921 -14.80016552 86.89202794 -24.86328125 99.296875 C-38.50661109 117.81066184 -45.01400861 141.25078332 -41.68359375 164.17822266 C-38.09577613 182.82703683 -30.30448661 198.45321313 -17 212 C-16.26265625 212.76183594 -15.5253125 213.52367187 -14.765625 214.30859375 C0.27779287 228.87243957 20.41573696 236.43350056 41.1875 236.3125 C42.69534058 236.30512817 42.69534058 236.30512817 44.23364258 236.29760742 C77.47624563 235.77831658 101.52919387 215.6212272 123.86328125 193.14453125 C138.18553334 178.4772005 138.18553334 178.4772005 148 161 C147.06572858 158.36433973 146.064771 155.86442024 144.9375 153.3125 C141.64456434 145.73211792 138.719957 138.03297587 135.84768677 130.28610229 C133.39737632 123.67792986 130.93267202 117.07509227 128.46826172 110.47216797 C127.82158171 108.73757849 127.17607785 107.00255008 126.53173828 105.26708984 C122.98642963 95.72147631 119.34581283 86.26894186 115.26855469 76.93603516 C113.67432537 73.24623497 112.2568139 69.52432596 110.875 65.75 C108.67759178 59.7936766 106.40170604 53.87711595 104 48 C103.67 48 103.34 48 103 48 C102.95370013 61.75158639 102.91814272 75.5031543 102.89637566 89.2548027 C102.88592963 95.63994852 102.87175539 102.02504108 102.84912109 108.41015625 C102.82742206 114.56984227 102.81543755 120.72947701 102.81024551 126.8891983 C102.80654448 129.24157773 102.79931748 131.5939543 102.78853989 133.94631195 C102.77406419 137.23608002 102.77202043 140.525635 102.77294922 143.81542969 C102.76216339 145.28062546 102.76216339 145.28062546 102.75115967 146.77542114 C102.75528366 148.12151962 102.75528366 148.12151962 102.75949097 149.49481201 C102.75764738 150.27280529 102.75580379 151.05079857 102.75390434 151.8523674 C103.03659694 154.31937491 103.65534741 155.91700277 105 158 C107.41679707 158.70176588 107.41679707 158.70176588 110.125 158.75 C111.03507813 158.80671875 111.94515625 158.8634375 112.8828125 158.921875 C113.58148438 158.94765625 114.28015625 158.9734375 115 159 C115 159.66 115 160.32 115 161 C106.09 161 97.18 161 88 161 C88 160.34 88 159.68 88 159 C89.5778125 159.1546875 89.5778125 159.1546875 91.1875 159.3125 C95.01321501 159.31227521 95.01321501 159.31227521 97.70280457 157.17573547 C101.07987625 152.50713558 100.6632879 148.50244515 100.56762695 142.87573242 C100.56835709 141.75334167 100.56908722 140.63095093 100.56983948 139.47454834 C100.56635834 135.76769551 100.52746917 132.06210186 100.48828125 128.35546875 C100.47895508 125.78429348 100.47183804 123.21310933 100.46684265 120.641922 C100.44970801 114.56801197 100.41030949 108.49462096 100.3600952 102.42090636 C100.30415778 95.50442001 100.27670431 88.58791181 100.25161803 81.67125547 C100.19939163 67.44726151 100.11147697 53.2236468 100 39 C98.02 38.01 98.02 38.01 96 37 C96 63.73 96 90.46 96 118 C95.01 118 94.02 118 93 118 C92.62294922 117.18402344 92.62294922 117.18402344 92.23828125 116.3515625 C90.75162112 113.52831519 89.01150289 110.99425462 87.1875 108.375 C86.79860596 107.81651367 86.40971191 107.25802734 86.0090332 106.68261719 C82.07352686 101.05675859 78.04425949 95.49861774 74.01269531 89.94140625 C70.27477864 84.78416469 66.59243764 79.59127606 62.9375 74.375 C59.03851969 68.81555651 55.04009714 63.34826754 50.9375 57.9375 C46.40628714 51.96007688 42.09089098 45.86617038 37.87402344 39.66357422 C34.60837368 34.86275942 31.23281331 30.15676444 27.78515625 25.484375 C25.47087303 22.26362198 23.33294942 18.94165954 21.2265625 15.58203125 C20.82179687 15.05996094 20.41703125 14.53789062 20 14 C19.34 14 18.68 14 18 14 Z " fill="#52D791" transform="translate(141,126)"/>
<path d="M0 0 C4.26799757 -0.24911983 8.53205051 -0.42947331 12.80517578 -0.54931641 C14.25481912 -0.59930411 15.70396581 -0.6673306 17.15185547 -0.75439453 C29.12890195 -1.45601338 29.12890195 -1.45601338 33.62695312 2.04418945 C35.68701844 4.59739132 37.36513064 7.15920162 39 10 C39.81150475 11.15265071 40.63258874 12.29870258 41.46875 13.43359375 C42.1390625 14.42488281 42.809375 15.41617188 43.5 16.4375 C46.21448112 20.41788297 48.96415691 24.36375136 51.8125 28.25 C55.15738684 32.81781977 58.43074568 37.4317696 61.6875 42.0625 C65.94399752 48.1089995 70.23308487 54.13047527 74.5625 60.125 C75.28409302 61.12478882 75.28409302 61.12478882 76.02026367 62.14477539 C81.31068738 69.4566511 86.6626271 76.72176423 92 84 C92.33 67.83 92.66 51.66 93 35 C90.69 35 88.38 35 86 35 C86 34.34 86 33.68 86 33 C88.31 33 90.62 33 93 33 C92.93121386 29.04840742 92.84329572 25.09775377 92.73754883 21.14697266 C92.68790041 19.14117664 92.65345836 17.13502313 92.61914062 15.12890625 C92.58369141 13.87207031 92.54824219 12.61523438 92.51171875 11.3203125 C92.48553467 10.15773926 92.45935059 8.99516602 92.43237305 7.79736328 C92.28968994 6.8742334 92.14700684 5.95110352 92 5 C88.55549263 2.70366176 86.06187717 2.45983515 82 2 C82 1.34 82 0.68 82 0 C90.25 0 98.5 0 107 0 C107 0.66 107 1.32 107 2 C105.72125 2.12375 104.4425 2.2475 103.125 2.375 C99.65209064 2.69042399 99.65209064 2.69042399 97 5 C96.62731113 7.91188245 96.62731113 7.91188245 96.5859375 11.3203125 C96.52792969 13.20556641 96.52792969 13.20556641 96.46875 15.12890625 C96.4378125 16.44761719 96.406875 17.76632813 96.375 19.125 C96.33681971 20.46486918 96.29776794 21.80471383 96.2578125 23.14453125 C96.16328242 26.42945148 96.08054267 29.71470706 96 33 C103.26 33 110.52 33 118 33 C119.98 37.455 119.98 37.455 122 42 C121.67 42.66 121.34 43.32 121 44 C120.84789062 43.36191406 120.69578125 42.72382813 120.5390625 42.06640625 C119.3892325 38.91665826 118.52159501 37.26132886 116 35 C110.18949619 33.47904434 103.95588572 33.84538199 98 34 C98 34.66 98 35.32 98 36 C98.66 36 99.32 36 100 36 C99.67 36.99 99.34 37.98 99 39 C98.01 38.34 97.02 37.68 96 37 C96 63.73 96 90.46 96 118 C95.01 118 94.02 118 93 118 C91.07227123 115.58268932 89.34243675 113.18667608 87.625 110.625 C86.5453817 109.05392355 85.46461475 107.48363594 84.3828125 105.9140625 C83.8249707 105.09969727 83.26712891 104.28533203 82.69238281 103.44628906 C80.02226759 99.58671686 77.26122043 95.79465237 74.5 92 C70.26293943 86.15882375 66.07913034 80.2841597 61.9375 74.375 C58.03843526 68.81561395 54.04009948 63.34827062 49.9375 57.9375 C45.40724681 51.96134284 41.09383269 45.86809073 36.8762207 39.66796875 C32.53169999 33.28405371 28.00273187 27.04270243 23.3984375 20.84375 C20 16.21124302 20 16.21124302 20 14 C19.34 14 18.68 14 18 14 C18 31.82 18 49.64 18 68 C21.3 67.01 24.6 66.02 28 65 C30.87383976 64.73375871 33.46140696 64.57463722 36.3125 64.625 C37.32666992 64.60759766 37.32666992 64.60759766 38.36132812 64.58984375 C43.13825973 64.61780628 46.57204782 65.57204782 50 69 C50.39588785 72.56299065 50.42667508 74.37639795 48.375 77.375 C46 79 46 79 43 79.5625 C40 79 40 79 37.5625 76.8125 C36 74 36 74 36.1875 71.3125 C37 69 37 69 38 67 C35.20763552 67.47535969 32.41615009 67.9551067 29.625 68.4375 C28.8309375 68.57220703 28.036875 68.70691406 27.21875 68.84570312 C22.98605017 69.51417589 22.98605017 69.51417589 19 71 C18.950533 76.48094366 18.9142486 81.96175713 18.89013672 87.44287109 C18.88008407 89.30715194 18.86643995 91.17141703 18.84912109 93.03564453 C18.82484047 95.71651091 18.81350953 98.39716866 18.8046875 101.078125 C18.79436493 101.91055725 18.78404236 102.7429895 18.77340698 103.60064697 C18.67565354 109.11957615 18.67565354 109.11957615 21 114 C23.17208588 114.91160093 23.17208588 114.91160093 25.625 115.25 C26.44226563 115.39953125 27.25953125 115.5490625 28.1015625 115.703125 C28.72804688 115.80109375 29.35453125 115.8990625 30 116 C30 116.66 30 117.32 30 118 C21.75 118 13.5 118 5 118 C5 117.34 5 116.68 5 116 C5.63808594 115.87882812 6.27617187 115.75765625 6.93359375 115.6328125 C7.75988281 115.46523437 8.58617187 115.29765625 9.4375 115.125 C10.26121094 114.96257812 11.08492187 114.80015625 11.93359375 114.6328125 C12.95646484 114.31957031 12.95646484 114.31957031 14 114 C15.69026137 110.61947726 15.24444959 106.77739858 15.31640625 103.0546875 C15.33718735 102.1696756 15.35796844 101.2846637 15.37937927 100.37283325 C15.44486598 97.54030259 15.50375562 94.70767775 15.5625 91.875 C15.60568606 89.95702143 15.64930037 88.03905246 15.69335938 86.12109375 C15.80054647 81.41415949 15.9018164 76.70713033 16 72 C-4.77526693 79.00656983 -22.21376415 93.0377031 -32.3125 112.75 C-43.21143593 134.95840286 -43.35001159 158.38065385 -35.8671875 181.5 C-31.59092539 193.50751745 -24.88529818 202.94819708 -16 212 C-15.00419922 213.03253906 -15.00419922 213.03253906 -13.98828125 214.0859375 C0.72455315 228.26630742 21.00838382 235.43004825 41.1875 235.3125 C42.69534058 235.30512817 42.69534058 235.30512817 44.23364258 235.29760742 C77.46405857 234.77850696 101.23591654 214.70560984 123.640625 192.3671875 C130.73398998 184.87452714 136.82355335 176.55067828 142.97265625 168.28125 C143.53218994 167.52908203 144.09172363 166.77691406 144.66821289 166.00195312 C146.16519363 163.94136305 146.16519363 163.94136305 147 161 C146.47056706 158.68586626 146.47056706 158.68586626 145.5625 156.3125 C145.27503906 155.50425781 144.98757813 154.69601562 144.69140625 153.86328125 C144.46324219 153.24839844 144.23507812 152.63351562 144 152 C144.66 152 145.32 152 146 152 C146.19335938 152.63808594 146.38671875 153.27617187 146.5859375 153.93359375 C146.84632813 154.75988281 147.10671875 155.58617187 147.375 156.4375 C147.63023437 157.26121094 147.88546875 158.08492187 148.1484375 158.93359375 C148.80882227 161.17798016 148.80882227 161.17798016 151 162 C128.91096601 193.01325689 100.1776846 229.25184432 60.765625 237.33984375 C36.57082162 241.27865596 14.11554831 237.17544625 -6.3203125 223.83203125 C-26.3834047 209.33631885 -37.38851076 190.82132196 -43 167 C-43.19722656 166.21367187 -43.39445312 165.42734375 -43.59765625 164.6171875 C-47.09907049 141.84099778 -40.8960315 118.83827261 -28 100 C-24.66666338 95.667263 -20.9157249 91.80484744 -17 88 C-16.31035156 87.32453125 -15.62070313 86.6490625 -14.91015625 85.953125 C-7.3942966 79.00595002 5.33427413 69 16 69 C16.00831171 61.26301208 15.98441762 53.52668758 15.9197216 45.78997517 C15.89068274 42.19712871 15.87262429 38.60493391 15.87988281 35.01196289 C15.88648397 31.54255978 15.86395053 28.07444343 15.82144547 24.60530663 C15.80492698 22.64174785 15.81836614 20.67801097 15.83224487 18.71443176 C15.93088606 12.58677179 15.93088606 12.58677179 13.70071411 7.08049011 C10.83876832 4.61039132 7.8223897 3.30373162 4.125 2.6875 C3.34382813 2.54699219 2.56265625 2.40648437 1.7578125 2.26171875 C1.17773438 2.17535156 0.59765625 2.08898437 0 2 C0 1.34 0 0.68 0 0 Z " fill="#52D691" transform="translate(141,126)"/>
<path d="M0 0 C11.59273843 4.55322026 20.0573509 12.16475007 25.49609375 23.390625 C29.23358407 33.61222644 28.96019127 46.82231035 24.65625 56.76953125 C18.46300746 68.36743575 9.71844353 74.86579792 -2.6015625 79.125 C-9.37392512 81.10079019 -16.99054299 80.56338392 -23.6015625 78.125 C-25.20405579 77.02519226 -25.20405579 77.02519226 -26.6015625 75.125 C-26.96232605 71.95491028 -26.96232605 71.95491028 -26.94213867 67.99145508 C-26.94257675 67.26925278 -26.94301483 66.54705048 -26.94346619 65.80296326 C-26.94137664 63.41654395 -26.91803863 61.03082777 -26.89453125 58.64453125 C-26.88893586 56.98972457 -26.8846655 55.33491292 -26.88166809 53.68009949 C-26.87021474 49.32506586 -26.84074348 44.97033249 -26.80755615 40.61541748 C-26.77686576 36.17138735 -26.76316497 31.72730869 -26.74804688 27.28320312 C-26.71587412 18.56366431 -26.66467202 9.84436951 -26.6015625 1.125 C-18.9611405 -2.87289957 -8.22080284 -1.99724494 0 0 Z " fill="#EDFEFB" transform="translate(382.6015625,205.875)"/>
<path d="M0 0 C0.87454834 0.00523682 1.74909668 0.01047363 2.65014648 0.01586914 C3.59438477 0.0190918 4.53862305 0.02231445 5.51147461 0.02563477 C6.50469727 0.03401367 7.49791992 0.04239258 8.52124023 0.05102539 C9.51833008 0.05553711 10.51541992 0.06004883 11.54272461 0.06469727 C14.01478872 0.07652532 16.48673541 0.0930069 18.95874023 0.11352539 C18.80026611 0.75249756 18.64179199 1.39146973 18.47851562 2.04980469 C17.79399367 6.08459381 17.72487768 10.04713142 17.64233398 14.13305664 C17.62155289 14.99162766 17.60077179 15.85019867 17.57936096 16.73478699 C17.51421501 19.46512193 17.4551437 22.19554935 17.39624023 24.92602539 C17.35302174 26.78215457 17.3094064 28.63827455 17.26538086 30.49438477 C17.15856962 35.03400464 17.05720459 39.57371711 16.95874023 44.11352539 C17.5770018 43.95217606 18.19526337 43.79082672 18.83226013 43.62458801 C30.87457178 40.73042721 43.75432932 42.89962467 54.27124023 49.05102539 C55.15811523 49.73165039 56.04499023 50.41227539 56.95874023 51.11352539 C57.94874023 51.83540039 58.93874023 52.55727539 59.95874023 53.30102539 C67.83702744 60.06562802 73.23764492 71.37061664 74.19702148 81.67211914 C74.50204643 93.50387609 71.43651691 103.87092064 63.95874023 113.11352539 C63.48049805 113.72711914 63.00225586 114.34071289 62.50952148 114.97290039 C56.94056527 121.31337446 47.31303426 126.54715224 38.95874023 128.11352539 C36.62672108 128.19783246 34.29224577 128.22042527 31.95874023 128.20727539 C31.26377441 128.20369019 30.56880859 128.20010498 29.8527832 128.19641113 C20.88563407 128.12967656 11.92208872 127.86849655 2.95874023 127.61352539 C1.20093323 127.56514836 -0.55687927 127.51697024 -2.31469727 127.46899414 C-6.55695123 127.35278759 -10.79912279 127.23392421 -15.04125977 127.11352539 C-15.04125977 126.45352539 -15.04125977 125.79352539 -15.04125977 125.11352539 C-14.43797852 124.98075195 -13.83469727 124.84797852 -13.21313477 124.71118164 C-12.01430664 124.4462793 -12.01430664 124.4462793 -10.79125977 124.17602539 C-9.60790039 123.91499023 -9.60790039 123.91499023 -8.40063477 123.64868164 C-6.27237927 123.16594819 -4.15736165 122.64645511 -2.04125977 122.11352539 C-2.04733529 121.49084558 -2.05341082 120.86816576 -2.05967045 120.22661686 C-2.20695073 105.09646616 -2.34869342 89.96627468 -2.48422337 74.83601475 C-2.54989825 67.51922867 -2.61746813 60.20246913 -2.68945312 52.88574219 C-2.75216842 46.51072629 -2.81137513 40.13568928 -2.86631531 33.76060146 C-2.89554705 30.38302365 -2.92657178 27.00548321 -2.9617939 23.62796211 C-3.00017079 19.86349013 -3.03234595 16.09901439 -3.06298828 12.33447266 C-3.0759343 11.20662857 -3.08888031 10.07878448 -3.10221863 8.91676331 C-3.11277786 7.38753235 -3.11277786 7.38753235 -3.12355042 5.82740784 C-3.13184655 4.93603402 -3.14014269 4.04466021 -3.14869022 3.12627506 C-3.00188773 0.37587571 -2.74914428 0.15289464 0 0 Z M16.95874023 47.11352539 C16.88928179 56.71007843 16.83595023 66.30654516 16.80330372 75.90329456 C16.78763636 80.35928528 16.76637871 84.81510424 16.73242188 89.27099609 C16.69986636 93.56982299 16.68189528 97.86848451 16.67410851 102.16742516 C16.66855812 103.80892224 16.65771974 105.4504101 16.64155006 107.09183693 C16.61982592 109.38808499 16.61677113 111.68364647 16.61816406 113.97998047 C16.61150223 115.28792068 16.60484039 116.5958609 16.59797668 117.94343567 C16.6881385 121.07575221 16.6881385 121.07575221 18.35624695 123.01371765 C23.30932609 126.41306716 31.17583248 126.92516157 36.95874023 126.11352539 C48.59495425 123.30808201 57.981549 117.97184534 64.95874023 108.11352539 C71.43776155 96.96826592 73.13887702 84.37753056 69.95874023 71.73852539 C66.69005535 62.74580547 60.22690889 54.87971049 51.95874023 50.11352539 C51.13245117 49.62883789 50.30616211 49.14415039 49.45483398 48.64477539 C40.28235472 44.05215712 26.35542712 42.19664901 16.95874023 47.11352539 Z " fill="#51D690" transform="translate(339.041259765625,159.886474609375)"/>
<path d="M0 0 C0.495 1.485 0.495 1.485 1 3 C3.475 3.495 3.475 3.495 6 4 C6.495 6.475 6.495 6.475 7 9 C5.5 7.625 5.5 7.625 4 6 C4 5.34 4 4.68 4 4 C3.34 4 2.68 4 2 4 C2 21.82 2 39.64 2 58 C5.3 57.01 8.6 56.02 12 55 C14.87383976 54.73375871 17.46140696 54.57463722 20.3125 54.625 C20.98861328 54.61339844 21.66472656 54.60179687 22.36132812 54.58984375 C27.13825973 54.61780628 30.57204782 55.57204782 34 59 C34.39588785 62.56299065 34.42667508 64.37639795 32.375 67.375 C30 69 30 69 27 69.5625 C24 69 24 69 21.5625 66.8125 C20 64 20 64 20.1875 61.3125 C21 59 21 59 22 57 C19.20763552 57.47535969 16.41615009 57.9551067 13.625 58.4375 C12.8309375 58.57220703 12.036875 58.70691406 11.21875 58.84570312 C6.98605017 59.51417589 6.98605017 59.51417589 3 61 C2.950533 66.48094366 2.9142486 71.96175713 2.89013672 77.44287109 C2.88008407 79.30715194 2.86643995 81.17141703 2.84912109 83.03564453 C2.82484047 85.71651091 2.81350953 88.39716866 2.8046875 91.078125 C2.79436493 91.91055725 2.78404236 92.7429895 2.77340698 93.60064697 C2.67565354 99.11957615 2.67565354 99.11957615 5 104 C7.17208588 104.91160093 7.17208588 104.91160093 9.625 105.25 C10.44226563 105.39953125 11.25953125 105.5490625 12.1015625 105.703125 C12.72804688 105.80109375 13.35453125 105.8990625 14 106 C14 106.66 14 107.32 14 108 C5.75 108 -2.5 108 -11 108 C-11 107.34 -11 106.68 -11 106 C-10.36191406 105.87882812 -9.72382813 105.75765625 -9.06640625 105.6328125 C-8.24011719 105.46523437 -7.41382813 105.29765625 -6.5625 105.125 C-5.73878906 104.96257812 -4.91507813 104.80015625 -4.06640625 104.6328125 C-3.04353516 104.31957031 -3.04353516 104.31957031 -2 104 C-0.30973863 100.61947726 -0.75555041 96.77739858 -0.68359375 93.0546875 C-0.66281265 92.1696756 -0.64203156 91.2846637 -0.62062073 90.37283325 C-0.55513402 87.54030259 -0.49624438 84.70767775 -0.4375 81.875 C-0.39431394 79.95702143 -0.35069963 78.03905246 -0.30664062 76.12109375 C-0.19945353 71.41415949 -0.0981836 66.70713033 0 62 C-20.77526693 69.00656983 -38.21376415 83.0377031 -48.3125 102.75 C-59.21143593 124.95840286 -59.35001159 148.38065385 -51.8671875 171.5 C-47.59092539 183.50751745 -40.88529818 192.94819708 -32 202 C-31.00419922 203.03253906 -31.00419922 203.03253906 -29.98828125 204.0859375 C-15.27544685 218.26630742 5.00838382 225.43004825 25.1875 225.3125 C26.69534058 225.30512817 26.69534058 225.30512817 28.23364258 225.29760742 C61.46405857 224.77850696 85.23591654 204.70560984 107.640625 182.3671875 C114.73398998 174.87452714 120.82355335 166.55067828 126.97265625 158.28125 C127.53218994 157.52908203 128.09172363 156.77691406 128.66821289 156.00195312 C130.16519363 153.94136305 130.16519363 153.94136305 131 151 C130.47056706 148.68586626 130.47056706 148.68586626 129.5625 146.3125 C129.27503906 145.50425781 128.98757813 144.69601562 128.69140625 143.86328125 C128.46324219 143.24839844 128.23507812 142.63351562 128 142 C128.66 142 129.32 142 130 142 C130.19335938 142.63808594 130.38671875 143.27617187 130.5859375 143.93359375 C130.84632813 144.75988281 131.10671875 145.58617187 131.375 146.4375 C131.63023437 147.26121094 131.88546875 148.08492187 132.1484375 148.93359375 C132.80882227 151.17798016 132.80882227 151.17798016 135 152 C112.91096601 183.01325689 84.1776846 219.25184432 44.765625 227.33984375 C20.57082162 231.27865596 -1.88445169 227.17544625 -22.3203125 213.83203125 C-42.3834047 199.33631885 -53.38851076 180.82132196 -59 157 C-59.19722656 156.21367187 -59.39445312 155.42734375 -59.59765625 154.6171875 C-63.09907049 131.84099778 -56.8960315 108.83827261 -44 90 C-40.66666338 85.667263 -36.9157249 81.80484744 -33 78 C-32.31035156 77.32453125 -31.62070313 76.6490625 -30.91015625 75.953125 C-23.3942966 69.00595002 -10.66572587 59 0 59 C0 39.53 0 20.06 0 0 Z " fill="#77D0A6" transform="translate(157,136)"/>
<path d="M0 0 C0.33 0 0.66 0 1 0 C1.20388916 7.22199923 1.34337344 14.44324906 1.43945312 21.66748047 C1.47952993 24.12153863 1.53400861 26.57540762 1.60351562 29.02880859 C1.70125982 32.56916077 1.7460866 36.10697595 1.78125 39.6484375 C1.82254028 40.73426117 1.86383057 41.82008484 1.90637207 42.93881226 C1.91142205 51.63327271 -1.19133402 55.79118177 -7 62 C-8.05214013 63.38445354 -9.08663486 64.78281433 -10.08984375 66.203125 C-10.79355103 67.19662964 -10.79355103 67.19662964 -11.51147461 68.21020508 C-11.98206299 68.8833374 -12.45265137 69.55646973 -12.9375 70.25 C-13.45127197 70.98178467 -13.96504395 71.71356934 -14.49438477 72.4675293 C-18.72460087 78.52998286 -22.74021441 84.70634448 -26.69433594 90.95263672 C-29.45367463 95.27945316 -32.26263117 99.57435002 -35.0625 103.875 C-35.64765381 104.77452393 -36.23280762 105.67404785 -36.83569336 106.60083008 C-38.22345321 108.73410983 -39.61155897 110.86716356 -41 113 C-42 111 -42 111 -41.47436523 109.20678711 C-41.17216064 108.4875708 -40.86995605 107.76835449 -40.55859375 107.02734375 C-40.22150391 106.20814453 -39.88441406 105.38894531 -39.53710938 104.54492188 C-39.17423828 103.68447266 -38.81136719 102.82402344 -38.4375 101.9375 C-35.52125053 94.96872727 -32.88899375 87.94187564 -30.40039062 80.81210327 C-27.37950753 72.17890479 -24.15944087 63.6222551 -20.9375 55.0625 C-20.28700192 53.33073896 -19.63653036 51.59896796 -18.98608398 49.8671875 C-12.72694327 33.21823645 -6.37944091 16.60317564 0 0 Z " fill="#EAFEF9" transform="translate(335,168)"/>
<path d="M0 0 C1.34888732 0.00015905 2.69778075 0.00584927 4.04663086 0.01586914 C5.10991859 0.01799156 5.10991859 0.01799156 6.19468689 0.02015686 C8.46699173 0.02577096 10.73919936 0.03832576 13.01147461 0.05102539 C14.54858257 0.05603858 16.08569206 0.0606018 17.62280273 0.06469727 C21.39823103 0.07574497 25.17358632 0.09301898 28.94897461 0.11352539 C28.94897461 0.77352539 28.94897461 1.43352539 28.94897461 2.11352539 C25.64897461 2.44352539 22.34897461 2.77352539 18.94897461 3.11352539 C18.94897461 2.45352539 18.94897461 1.79352539 18.94897461 1.11352539 C16.96897461 1.44352539 14.98897461 1.77352539 12.94897461 2.11352539 C7.99897461 2.11352539 3.04897461 2.11352539 -2.05102539 2.11352539 C-2.05102539 42.04352539 -2.05102539 81.97352539 -2.05102539 123.11352539 C-2.71102539 123.11352539 -3.37102539 123.11352539 -4.05102539 123.11352539 C-4.05102539 103.97352539 -4.05102539 84.83352539 -4.05102539 65.11352539 C-11.90389815 75.98673382 -19.52347964 86.68567718 -26.69067383 97.97387695 C-42.65562981 123.08458661 -42.65562981 123.08458661 -46.05102539 127.11352539 C-46.71102539 127.11352539 -47.37102539 127.11352539 -48.05102539 127.11352539 C-47.72102539 125.13352539 -47.39102539 123.15352539 -47.05102539 121.11352539 C-46.39102539 121.11352539 -45.73102539 121.11352539 -45.05102539 121.11352539 C-43.89116829 119.69913051 -43.89116829 119.69913051 -42.79321289 117.80102539 C-42.34042969 117.0669043 -41.88764648 116.3327832 -41.42114258 115.57641602 C-40.92775391 114.76366211 -40.43436523 113.9509082 -39.92602539 113.11352539 C-35.01882788 105.18768559 -29.97282105 97.36939653 -24.80102539 89.61352539 C-23.82818604 88.14786133 -23.82818604 88.14786133 -22.83569336 86.65258789 C-11.10278994 69.08447686 -11.10278994 69.08447686 -6.34228516 64.51147461 C-2.71355587 60.16600097 -3.43196533 54.97562329 -3.56274414 49.59008789 C-3.57335625 47.93811905 -3.57335625 47.93811905 -3.58418274 46.2527771 C-3.61209313 42.74732544 -3.67482933 39.24349144 -3.73852539 35.73852539 C-3.76361242 33.3570381 -3.78642487 30.97552568 -3.80688477 28.59399414 C-3.86190883 22.76662255 -3.94550282 16.94018956 -4.05102539 11.11352539 C-4.30443695 11.79494598 -4.55784851 12.47636658 -4.81893921 13.17843628 C-7.25726775 19.73427401 -9.69702791 26.28957695 -12.13823509 32.84434319 C-13.39196574 36.21081526 -14.64522053 39.57746256 -15.8972168 42.94458008 C-17.35059388 46.8530314 -18.80555644 50.76088939 -20.26196289 54.66821289 C-20.50264244 55.31401054 -20.74332199 55.9598082 -20.99129486 56.62517548 C-24.8605725 66.99973864 -28.80366446 77.34383038 -32.8230896 87.66134644 C-35.06279126 93.43420185 -37.14455678 99.22184371 -39.05102539 105.11352539 C-41.11712646 101.42922974 -41.11712646 101.42922974 -40.5222168 98.58789062 C-40.15273926 97.62568604 -39.78326172 96.66348145 -39.40258789 95.67211914 C-38.98227295 94.55297119 -38.56195801 93.43382324 -38.12890625 92.28076172 C-37.64472647 91.03747194 -37.16042874 89.79422809 -36.67602539 88.55102539 C-36.17779316 87.23871304 -35.68117479 85.92578701 -35.18603516 84.61230469 C-34.08979049 81.70933277 -32.98556745 78.8095531 -31.87670898 75.91137695 C-28.8695475 68.03260978 -25.95532587 60.11893267 -23.0229187 52.21212769 C-21.65132554 48.51778937 -20.27460376 44.82537233 -18.89778137 41.13298035 C-16.19823067 33.89319655 -13.50664035 26.65068928 -10.84008789 19.39868164 C-10.48216911 18.42651451 -10.48216911 18.42651451 -10.11701965 17.43470764 C-9.03507614 14.49588525 -7.95557569 11.5562206 -6.88085938 8.61474609 C-6.51549072 7.62176514 -6.15012207 6.62878418 -5.77368164 5.60571289 C-5.46180908 4.75348145 -5.14993652 3.90125 -4.82861328 3.02319336 C-3.58199768 -0.03835364 -3.52225095 0.13105919 0 0 Z " fill="#73D1A3" transform="translate(339.051025390625,158.886474609375)"/>
<path d="M0 0 C0.33 0 0.66 0 1 0 C1 12.21 1 24.42 1 37 C2.98 36.505 2.98 36.505 5 36 C18.21791191 34.84389116 30.13990923 35.66551174 41 44 C41.99 44.721875 42.98 45.44375 44 46.1875 C51.87828721 52.95210263 57.27890468 64.25709125 58.23828125 74.55859375 C58.54330619 86.3903507 55.47777668 96.75739525 48 106 C47.52175781 106.61359375 47.04351562 107.2271875 46.55078125 107.859375 C40.98182504 114.19984907 31.35429402 119.43362685 23 121 C20.66798085 121.08430706 18.33350554 121.10689988 16 121.09375 C15.30503418 121.09016479 14.61006836 121.08657959 13.89404297 121.08288574 C4.92689383 121.01615117 -4.03665151 120.75497116 -13 120.5 C-14.75780701 120.45162297 -16.5156195 120.40344484 -18.2734375 120.35546875 C-22.51569147 120.2392622 -26.75786303 120.12039882 -31 120 C-31 119.34 -31 118.68 -31 118 C-30.37351562 117.86722656 -29.74703125 117.73445313 -29.1015625 117.59765625 C-27.87566406 117.33275391 -27.87566406 117.33275391 -26.625 117.0625 C-25.40683594 116.80146484 -25.40683594 116.80146484 -24.1640625 116.53515625 C-21.970537 116.07669307 -21.970537 116.07669307 -20 115 C-20 115.99 -20 116.98 -20 118 C-13.07 118 -6.14 118 1 118 C0.67 117.01 0.34 116.02 0 115 C-0.08942448 113.42649308 -0.12197321 111.84943672 -0.12025452 110.27339172 C-0.12162918 109.30164001 -0.12300385 108.32988831 -0.12442017 107.32868958 C-0.12082489 106.26414047 -0.11722961 105.19959137 -0.11352539 104.1027832 C-0.11367142 102.98068451 -0.11381744 101.85858582 -0.1139679 100.70248413 C-0.11326998 96.98523032 -0.10548317 93.26802633 -0.09765625 89.55078125 C-0.09579164 86.9767408 -0.09436794 84.40269999 -0.09336853 81.82865906 C-0.08993757 75.74074472 -0.08205218 69.65285101 -0.07201904 63.56494445 C-0.06084421 56.63393306 -0.055344 49.70292083 -0.05032361 42.77190268 C-0.03986921 28.51459215 -0.0222783 14.25729671 0 0 Z M1 40 C0.93054156 49.59655304 0.87721 59.19301977 0.84456348 68.78976917 C0.82889613 73.24575989 0.80763848 77.70157885 0.77368164 82.1574707 C0.74112612 86.4562976 0.72315505 90.75495912 0.71536827 95.05389977 C0.70981789 96.69539685 0.69897951 98.33688471 0.68280983 99.97831154 C0.66108569 102.2745596 0.6580309 104.57012108 0.65942383 106.86645508 C0.65276199 108.17439529 0.64610016 109.48233551 0.63923645 110.82991028 C0.72939827 113.96222682 0.72939827 113.96222682 2.39750671 115.90019226 C7.35058585 119.29954177 15.21709225 119.81163618 21 119 C32.63621402 116.19455662 42.02280877 110.85831995 49 101 C55.47902132 89.85474053 57.18013678 77.26400516 54 64.625 C50.73131511 55.63228008 44.26816866 47.7661851 36 43 C35.17371094 42.5153125 34.34742188 42.030625 33.49609375 41.53125 C24.32361448 36.93863173 10.39668689 35.08312362 1 40 Z " fill="#73D3A4" transform="translate(355,167)"/>
<path d="M0 0 C0.33 0.99 0.66 1.98 1 3 C2.65 3.33 4.3 3.66 6 4 C6.33 5.65 6.66 7.3 7 9 C5.5 7.625 5.5 7.625 4 6 C4 5.34 4 4.68 4 4 C3.34 4 2.68 4 2 4 C2 21.82 2 39.64 2 58 C5.3 57.01 8.6 56.02 12 55 C14.87383976 54.73375871 17.46140696 54.57463722 20.3125 54.625 C20.98861328 54.61339844 21.66472656 54.60179687 22.36132812 54.58984375 C27.13825973 54.61780628 30.57204782 55.57204782 34 59 C34.39588785 62.56299065 34.42667508 64.37639795 32.375 67.375 C30 69 30 69 27 69.5625 C24 69 24 69 21.5625 66.8125 C20 64 20 64 20.1875 61.3125 C21 59 21 59 22 57 C19.20763552 57.47535969 16.41615009 57.9551067 13.625 58.4375 C12.8309375 58.57220703 12.036875 58.70691406 11.21875 58.84570312 C6.98605017 59.51417589 6.98605017 59.51417589 3 61 C2.950533 66.48094366 2.9142486 71.96175713 2.89013672 77.44287109 C2.88008407 79.30715194 2.86643995 81.17141703 2.84912109 83.03564453 C2.82484047 85.71651091 2.81350953 88.39716866 2.8046875 91.078125 C2.79436493 91.91055725 2.78404236 92.7429895 2.77340698 93.60064697 C2.67565354 99.11957615 2.67565354 99.11957615 5 104 C7.17208588 104.91160093 7.17208588 104.91160093 9.625 105.25 C10.44226563 105.39953125 11.25953125 105.5490625 12.1015625 105.703125 C12.72804687 105.80109375 13.35453125 105.8990625 14 106 C14 106.66 14 107.32 14 108 C5.75 108 -2.5 108 -11 108 C-11 107.34 -11 106.68 -11 106 C-10.06027344 105.88785156 -10.06027344 105.88785156 -9.1015625 105.7734375 C-7.87566406 105.57621094 -7.87566406 105.57621094 -6.625 105.375 C-5.81289062 105.25898438 -5.00078125 105.14296875 -4.1640625 105.0234375 C-1.74562499 104.16890751 -1.74562499 104.16890751 -0.890625 101.47851562 C0.16627013 97.35059844 0.35110655 93.56251146 0.4140625 89.3203125 C0.43342865 88.50754852 0.4527948 87.69478455 0.4727478 86.85739136 C0.53217883 84.28003188 0.57878181 81.70262685 0.625 79.125 C0.66321343 77.36977298 0.70226709 75.61456403 0.7421875 73.859375 C0.83784999 69.57306476 0.92201449 65.28666681 1 61 C-0.32 60.67 -1.64 60.34 -3 60 C-1.515 59.505 -1.515 59.505 0 59 C0 39.53 0 20.06 0 0 Z " fill="#7ACFA5" transform="translate(157,136)"/>
<path d="M0 0 C0.66 0 1.32 0 2 0 C2 1.98 2 3.96 2 6 C2.99 6 3.98 6 5 6 C5.33 8.31 5.66 10.62 6 13 C5.34 12.34 4.68 11.68 4 11 C3.97685936 24.50810032 3.95907609 38.01619594 3.94818783 51.52431202 C3.94296279 57.79624442 3.93587196 64.06816328 3.92456055 70.34008789 C3.91371828 76.38953981 3.9077203 82.43897868 3.90512276 88.48843956 C3.90327094 90.79977308 3.89965495 93.11110586 3.89426994 95.42243385 C3.88704179 98.65248804 3.88600982 101.8824879 3.88647461 105.11254883 C3.88287933 106.07423981 3.87928406 107.03593079 3.87557983 108.02676392 C3.8769545 108.90595993 3.87832916 109.78515594 3.87974548 110.69099426 C3.87836279 111.83724384 3.87836279 111.83724384 3.87695217 113.00664997 C3.92721357 115.21026875 3.92721357 115.21026875 5 118 C8.3 118.66 11.6 119.32 15 120 C15 120.66 15 121.32 15 122 C6.09 122 -2.82 122 -12 122 C-12 121.34 -12 120.68 -12 120 C-11.06027344 119.83564453 -11.06027344 119.83564453 -10.1015625 119.66796875 C-9.28429687 119.50941406 -8.46703125 119.35085938 -7.625 119.1875 C-6.81289062 119.03667969 -6.00078125 118.88585937 -5.1640625 118.73046875 C-2.64179359 118.12455058 -2.64179359 118.12455058 -1 115 C-0.68943382 112.77449939 -0.68943382 112.77449939 -0.7215271 110.27339172 C-0.71036362 109.30164001 -0.69920013 108.32988831 -0.68769836 107.32868958 C-0.68553818 106.26414047 -0.68337799 105.19959137 -0.68115234 104.1027832 C-0.67110672 102.98068451 -0.6610611 101.85858582 -0.65071106 100.70248413 C-0.61976495 96.98525516 -0.60281203 93.26809857 -0.5859375 89.55078125 C-0.56723506 86.97673413 -0.54766236 84.4026932 -0.5272522 81.82865906 C-0.48108649 75.74078056 -0.44371339 69.65290596 -0.41057932 63.56494445 C-0.37236747 56.63387274 -0.32295489 49.70289511 -0.27259517 42.77190268 C-0.1692552 28.51467271 -0.08000153 14.25737906 0 0 Z " fill="#7ED7A9" transform="translate(241,165)"/>
<path d="M0 0 C8.25 0 16.5 0 25 0 C25 0.66 25 1.32 25 2 C23.72125 2.12375 22.4425 2.2475 21.125 2.375 C17.65209064 2.69042399 17.65209064 2.69042399 15 5 C14.62731113 7.91188245 14.62731113 7.91188245 14.5859375 11.3203125 C14.52792969 13.20556641 14.52792969 13.20556641 14.46875 15.12890625 C14.4378125 16.44761719 14.406875 17.76632813 14.375 19.125 C14.33681971 20.46486918 14.29776794 21.80471383 14.2578125 23.14453125 C14.16328242 26.42945148 14.08054267 29.71470706 14 33 C21.26 33 28.52 33 36 33 C37.32 35.97 38.64 38.94 40 42 C39.505 42.99 39.505 42.99 39 44 C38.84789062 43.36191406 38.69578125 42.72382813 38.5390625 42.06640625 C37.3892325 38.91665826 36.52159501 37.26132886 34 35 C28.18949619 33.47904434 21.95588572 33.84538199 16 34 C16 34.66 16 35.32 16 36 C16.66 36 17.32 36 18 36 C17.67 36.99 17.34 37.98 17 39 C16.01 38.34 15.02 37.68 14 37 C14 63.73 14 90.46 14 118 C13.01 117.67 12.02 117.34 11 117 C11.66 117 12.32 117 13 117 C12.67 106.77 12.34 96.54 12 86 C11.34 85.67 10.68 85.34 10 85 C10.33 68.5 10.66 52 11 35 C8.69 35 6.38 35 4 35 C4 34.34 4 33.68 4 33 C6.31 33 8.62 33 11 33 C10.93121386 29.04840742 10.84329572 25.09775377 10.73754883 21.14697266 C10.68790041 19.14117664 10.65345836 17.13502313 10.61914062 15.12890625 C10.5659668 13.24365234 10.5659668 13.24365234 10.51171875 11.3203125 C10.48553467 10.15773926 10.45935059 8.99516602 10.43237305 7.79736328 C10.28968994 6.8742334 10.14700684 5.95110352 10 5 C6.55549263 2.70366176 4.06187717 2.45983515 0 2 C0 1.34 0 0.68 0 0 Z " fill="#84DCB0" transform="translate(223,126)"/>
<path d="M0 0 C1.98 0.99 1.98 0.99 4 2 C4.07004597 16.94228709 4.12296649 31.88456147 4.15543652 46.82697773 C4.17091289 53.76483456 4.19201698 60.70258945 4.22631836 67.64038086 C4.25938564 74.33174738 4.27683755 81.02298595 4.28463173 87.71443748 C4.29018844 90.27140155 4.30103885 92.82835961 4.31719017 95.3852787 C4.33886639 98.9579093 4.34197099 102.53009777 4.34057617 106.1027832 C4.35675491 107.69960686 4.35675491 107.69960686 4.3732605 109.32868958 C4.36913651 110.30044128 4.36501251 111.27219299 4.36076355 112.27339172 C4.36352893 113.11867589 4.36629431 113.96396006 4.36914349 114.83485889 C3.9212107 117.46212372 3.03248976 118.34288339 1 120 C1.16265854 119.13575409 1.32531708 118.27150818 1.49290466 117.381073 C1.9767367 114.15510872 2.12051698 111.16091356 2.11352539 107.90283203 C2.11344986 106.72206085 2.11337433 105.54128967 2.11329651 104.32473755 C2.10813522 103.06515228 2.10297394 101.80556702 2.09765625 100.5078125 C2.0962413 99.20673553 2.09482635 97.90565857 2.09336853 96.56515503 C2.08956844 93.12270147 2.07975983 89.68029075 2.06866455 86.237854 C2.05839625 82.71847117 2.05380438 79.19908114 2.04882812 75.6796875 C2.03866706 68.78642061 2.01908906 61.89327107 2 55 C1.67 63.58 1.34 72.16 1 81 C0.67 81 0.34 81 0 81 C0 54.27 0 27.54 0 0 Z " fill="#D8FEF4" transform="translate(237,163)"/>
<path d="M0 0 C0.66 0 1.32 0 2 0 C2 37.95 2 75.9 2 115 C1.34 115 0.68 115 0 115 C0 95.86 0 76.72 0 57 C-7.85287276 67.87320843 -15.47245425 78.57215178 -22.63964844 89.86035156 C-38.60460441 114.97106122 -38.60460441 114.97106122 -42 119 C-42.66 119 -43.32 119 -44 119 C-43.67 117.02 -43.34 115.04 -43 113 C-42.34 113 -41.68 113 -41 113 C-39.8401429 111.58560512 -39.8401429 111.58560512 -38.7421875 109.6875 C-38.2894043 108.95337891 -37.83662109 108.21925781 -37.37011719 107.46289062 C-36.87672852 106.65013672 -36.38333984 105.83738281 -35.875 105 C-30.96780249 97.0741602 -25.92179565 89.25587114 -20.75 81.5 C-19.77716064 80.03433594 -19.77716064 80.03433594 -18.78466797 78.5390625 C-6.99546878 60.88665773 -6.99546878 60.88665773 -2.29125977 56.43896484 C1.44945612 51.9572437 0.61491619 46.35721193 0.48828125 40.8203125 C0.47766914 39.06846146 0.47766914 39.06846146 0.46684265 37.28121948 C0.43892017 33.56182007 0.37618052 29.84394217 0.3125 26.125 C0.28741459 23.59898012 0.26460185 21.07293657 0.24414062 18.546875 C0.18910025 12.36406679 0.10549322 6.18214211 0 0 Z " fill="#7AD6A8" transform="translate(335,167)"/>
<path d="M0 0 C0.33 0 0.66 0 1 0 C1 12.21 1 24.42 1 37 C2.98 36.505 2.98 36.505 5 36 C18.21791191 34.84389116 30.13990923 35.66551174 41 44 C41.99 44.721875 42.98 45.44375 44 46.1875 C51.87828721 52.95210263 57.27890468 64.25709125 58.23828125 74.55859375 C58.4689641 83.50666004 57.0463453 92.43048205 52 100 C51.01 99.67 50.02 99.34 49 99 C49.27714844 98.46890625 49.55429687 97.9378125 49.83984375 97.390625 C50.20207031 96.68421875 50.56429687 95.9778125 50.9375 95.25 C51.29714844 94.55390625 51.65679687 93.8578125 52.02734375 93.140625 C55.93669835 84.53690483 55.31080602 71.07245622 52.1015625 62.26953125 C48.34053947 54.52075685 43.47023873 48.35548521 36 44 C35.17242187 43.51402344 34.34484375 43.02804688 33.4921875 42.52734375 C23.90631527 37.73440763 11.36366748 37.12733544 1 40 C-0.63945963 36.72108075 -0.12030178 33.09386466 -0.09765625 29.4921875 C-0.0962413 28.65156769 -0.09482635 27.81094788 -0.09336853 26.94485474 C-0.08776237 24.25486725 -0.07520886 21.56496241 -0.0625 18.875 C-0.05748579 17.05338662 -0.05292275 15.23177193 -0.04882812 13.41015625 C-0.03779094 8.94007223 -0.0205222 4.47005014 0 0 Z " fill="#80D5AC" transform="translate(355,167)"/>
<path d="M0 0 C0.99 0.66 1.98 1.32 3 2 C2.59386475 2.60658447 2.18772949 3.21316895 1.76928711 3.83813477 C-8.25902695 18.82508821 -18.18311501 33.87346069 -28 49 C-29 47 -29 47 -28.47436523 45.20678711 C-28.17216064 44.4875708 -27.86995605 43.76835449 -27.55859375 43.02734375 C-27.22496826 42.21813477 -26.89134277 41.40892578 -26.54760742 40.57519531 C-26.18127197 39.70475586 -25.81493652 38.83431641 -25.4375 37.9375 C-22.15790972 29.96280363 -19.13360379 21.94768681 -16.32421875 13.796875 C-14.95840679 9.83529438 -13.48466463 5.91846971 -12 2 C-11.67 2 -11.34 2 -11 2 C-11.09765625 4.01822917 -11.1953125 6.03645833 -11.29296875 8.0546875 C-11.19628906 8.69664062 -11.09960938 9.33859375 -11 10 C-10.01 10.66 -9.02 11.32 -8 12 C-6.84545838 10.75803878 -5.70167438 9.50607155 -4.5625 8.25 C-3.92441406 7.55390625 -3.28632813 6.8578125 -2.62890625 6.140625 C-1.00918675 4.01207275 -0.41732744 2.60976595 0 0 Z " fill="#E1FDF4" transform="translate(322,232)"/>
<path d="M0 0 C2.42319424 3.11162057 3.90543656 5.90236539 5.25 9.625 C5.60578125 10.58664063 5.9615625 11.54828125 6.328125 12.5390625 C7 15 7 15 6 17 C5.54625 16.505 5.0925 16.01 4.625 15.5 C3.12364481 13.77390663 3.12364481 13.77390663 1 14 C1.1075433 25.64824729 1.22018531 37.29643303 1.33933926 48.94456768 C1.39450672 54.35324272 1.44791685 59.76192323 1.49731445 65.1706543 C1.54504909 70.390228 1.59739519 75.60973695 1.65294075 80.82923317 C1.67332308 82.82071126 1.6920429 84.81220709 1.70907402 86.80371666 C1.73320934 89.59276104 1.76325136 92.38168387 1.79467773 95.1706543 C1.8004332 95.99424438 1.80618866 96.81783447 1.81211853 97.66638184 C1.86213603 101.57091135 2.04646453 105.18684368 3 109 C5.64 108.67 8.28 108.34 11 108 C11.33 108.99 11.66 109.98 12 111 C10.3739713 110.93999894 8.74898451 110.8512115 7.125 110.75 C6.22007812 110.70359375 5.31515625 110.6571875 4.3828125 110.609375 C2 110 2 110 0.86610603 108.24348831 C-0.07180175 105.81401077 -0.24665989 104.09047273 -0.24050903 101.49481201 C-0.24325836 100.59741302 -0.24600769 99.70001404 -0.24884033 98.77542114 C-0.24164978 97.79862396 -0.23445923 96.82182678 -0.22705078 95.81542969 C-0.22748886 94.26373581 -0.22748886 94.26373581 -0.22793579 92.68069458 C-0.22654231 89.26100277 -0.21098004 85.84152876 -0.1953125 82.421875 C-0.19158244 80.05104695 -0.18873544 77.68021735 -0.18673706 75.30938721 C-0.17910008 69.06880438 -0.15945092 62.82831461 -0.1373291 56.58776855 C-0.11687214 50.21998351 -0.10773566 43.85218343 -0.09765625 37.484375 C-0.07620518 24.98954244 -0.04206836 12.49477896 0 0 Z " fill="#DFFEF6" transform="translate(244,174)"/>
<path d="M0 0 C8.25 0 16.5 0 25 0 C25 0.66 25 1.32 25 2 C23.72125 2.12375 22.4425 2.2475 21.125 2.375 C17.65209064 2.69042399 17.65209064 2.69042399 15 5 C14.62731113 7.91188245 14.62731113 7.91188245 14.5859375 11.3203125 C14.52792969 13.20556641 14.52792969 13.20556641 14.46875 15.12890625 C14.4378125 16.44761719 14.406875 17.76632813 14.375 19.125 C14.33681971 20.46486918 14.29776794 21.80471383 14.2578125 23.14453125 C14.1632797 26.42954619 14.07772844 29.71455138 14 33 C13.01 33 12.02 33 11 33 C10.98541748 32.16227051 10.97083496 31.32454102 10.95581055 30.46142578 C10.89479293 27.35621098 10.82064935 24.25166883 10.73754883 21.14697266 C10.68790041 19.14117664 10.65345836 17.13502313 10.61914062 15.12890625 C10.5659668 13.24365234 10.5659668 13.24365234 10.51171875 11.3203125 C10.48553467 10.15773926 10.45935059 8.99516602 10.43237305 7.79736328 C10.28968994 6.8742334 10.14700684 5.95110352 10 5 C6.55549263 2.70366176 4.06187717 2.45983515 0 2 C0 1.34 0 0.68 0 0 Z " fill="#81DAAE" transform="translate(223,126)"/>
<path d="M0 0 C0.66 0 1.32 0 2 0 C2 16.5 2 33 2 50 C1.01 50.495 1.01 50.495 0 51 C-1.17935498 48.64129005 -1.1267916 47.22733629 -1.12939453 44.59790039 C-1.13254669 43.68677994 -1.13569885 42.77565948 -1.13894653 41.83692932 C-1.1369223 40.85046921 -1.13489807 39.86400909 -1.1328125 38.84765625 C-1.13376923 37.8365831 -1.13472595 36.82550995 -1.13571167 35.78379822 C-1.13639302 33.64273008 -1.13454189 31.50165989 -1.13037109 29.3605957 C-1.12502775 26.07954266 -1.13031478 22.79862686 -1.13671875 19.51757812 C-1.13605785 17.44010386 -1.13477645 15.36262969 -1.1328125 13.28515625 C-1.13483673 12.30072037 -1.13686096 11.31628448 -1.13894653 10.30201721 C-1.13579437 9.3877446 -1.13264221 8.47347198 -1.12939453 7.53149414 C-1.12859894 6.72700333 -1.12780334 5.92251251 -1.12698364 5.09364319 C-1 3 -1 3 0 0 Z " fill="#E5FEF8" transform="translate(238,166)"/>
<path d="M0 0 C6.84162896 -0.65158371 6.84162896 -0.65158371 10 1.125 C11.504106 3.94519875 11.44912849 5.85610056 11 9 C9.375 11.375 9.375 11.375 7 13 C4 13.5625 4 13.5625 1 13 C-1.4375 10.8125 -1.4375 10.8125 -3 8 C-2.83083157 4.44746291 -2.00047767 3.0007165 0 0 Z " fill="#57D594" transform="translate(180,192)"/>
<path d="M0 0 C0.66 0 1.32 0 2 0 C4.32019297 3.19026533 6.34643078 6.41726669 8 10 C6.35 9.67 4.7 9.34 3 9 C2.67 22.86 2.34 36.72 2 51 C4.64 51 7.28 51 10 51 C6.45633299 53.04442328 4.39797371 53.26700438 0 54 C0 36.18 0 18.36 0 0 Z " fill="#C5F9E3" transform="translate(159,140)"/>
<path d="M0 0 C0.33 0 0.66 0 1 0 C1.01981934 1.16047852 1.03963867 2.32095703 1.06005859 3.51660156 C1.13617912 7.82557734 1.22488666 12.13421828 1.31738281 16.44287109 C1.3556459 18.30706162 1.39050346 20.1713253 1.421875 22.03564453 C1.46758356 24.71673716 1.52556822 27.39732733 1.5859375 30.078125 C1.59748871 30.91055725 1.60903992 31.7429895 1.62094116 32.60064697 C1.66872574 38.11636547 1.66872574 38.11636547 4 43 C6.17208588 43.91160093 6.17208588 43.91160093 8.625 44.25 C9.44226563 44.39953125 10.25953125 44.5490625 11.1015625 44.703125 C11.72804687 44.80109375 12.35453125 44.8990625 13 45 C13 45.66 13 46.32 13 47 C4.75 47 -3.5 47 -12 47 C-12 46.34 -12 45.68 -12 45 C-11.37351563 44.92523438 -10.74703125 44.85046875 -10.1015625 44.7734375 C-8.87566406 44.57621094 -8.87566406 44.57621094 -7.625 44.375 C-6.81289062 44.25898438 -6.00078125 44.14296875 -5.1640625 44.0234375 C-2.74562499 43.16890751 -2.74562499 43.16890751 -1.890625 40.47851562 C-0.83372987 36.35059844 -0.64889345 32.56251146 -0.5859375 28.3203125 C-0.56657135 27.50754852 -0.5472052 26.69478455 -0.5272522 25.85739136 C-0.46782117 23.28003188 -0.42121819 20.70262685 -0.375 18.125 C-0.33678657 16.36977298 -0.29773291 14.61456403 -0.2578125 12.859375 C-0.16215001 8.57306476 -0.07798551 4.28666681 0 0 Z " fill="#69CA99" transform="translate(158,197)"/>
<path d="M0 0 C0.99 0 1.98 0 3 0 C3.33 1.98 3.66 3.96 4 6 C4.99 4.02 5.98 2.04 7 0 C9 2 9 2 9.125 4.625 C9.08375 5.40875 9.0425 6.1925 9 7 C9.99 7.33 10.98 7.66 12 8 C10.125 12.75 10.125 12.75 9 15 C6.9375 15.625 6.9375 15.625 5 16 C5 14.68 5 13.36 5 12 C2.69 11.34 0.38 10.68 -2 10 C-2.6875 8.375 -2.6875 8.375 -3 6 C-1.5625 2.75 -1.5625 2.75 0 0 Z " fill="#DEFEF4" transform="translate(293,303)"/>
<path d="M0 0 C10.89 0 21.78 0 33 0 C33 1.65 33 3.3 33 5 C30.42786866 6.61949011 29.32330841 7.04408751 26.25 6.625 C25.5075 6.41875 24.765 6.2125 24 6 C21.79600832 10.55491614 21.41153737 15.02906176 21 20 C20.67 20 20.34 20 20 20 C19.89158049 18.08458862 19.81421921 16.16740227 19.75 14.25 C19.70359375 13.18265625 19.6571875 12.1153125 19.609375 11.015625 C20 8 20 8 21.75 5.625 C25.29325725 3.06598087 27.72905791 3.71527053 32 4 C32 3.34 32 2.68 32 2 C21.44 2 10.88 2 0 2 C0 1.34 0 0.68 0 0 Z " fill="#C7F8E3" transform="translate(336,157)"/>
<path d="M0 0 C0.93423645 3.01031744 1.04449911 3.86650268 0 7 C0.4125 6.54625 0.825 6.0925 1.25 5.625 C3.06408095 3.94049626 4.75285627 3.00734029 7 2 C4.3246214 7.81436071 0.82630449 13.03767184 -2.6875 18.375 C-3.29400391 19.30183594 -3.90050781 20.22867187 -4.52539062 21.18359375 C-6.01406322 23.45762905 -7.5056662 25.72968251 -9 28 C-10 26 -10 26 -9.41088867 24.03222656 C-9.0832251 23.24299805 -8.75556152 22.45376953 -8.41796875 21.640625 C-8.06283203 20.77179688 -7.70769531 19.90296875 -7.34179688 19.0078125 C-6.96087891 18.09773438 -6.57996094 17.18765625 -6.1875 16.25 C-5.45027092 14.46418158 -4.71455549 12.67773742 -3.98046875 10.890625 C-3.63419434 10.04822266 -3.28791992 9.20582031 -2.93115234 8.33789062 C-1.83804669 5.59337576 -0.88214251 2.8191221 0 0 Z " fill="#DBFDF0" transform="translate(303,253)"/>
<path d="M0 0 C0.33 0 0.66 0 1 0 C1 26.73 1 53.46 1 81 C-3 79 -3 79 -4 77 C-2.68 77.33 -1.36 77.66 0 78 C-0.13837796 73.70805854 -0.28695939 69.41653071 -0.4375 65.125 C-0.47681641 63.90167969 -0.51613281 62.67835938 -0.55664062 61.41796875 C-0.59853516 60.25136719 -0.64042969 59.08476562 -0.68359375 57.8828125 C-0.72025146 56.80402832 -0.75690918 55.72524414 -0.79467773 54.61376953 C-0.83376643 52.01930464 -0.83376643 52.01930464 -2 50 C-1.34 50 -0.68 50 0 50 C0 33.5 0 17 0 0 Z " fill="#69CB9B" transform="translate(235,162)"/>
<path d="M0 0 C2.33944736 0.28730055 4.6739143 0.61936779 7 1 C8.33157895 6.44736842 8.33157895 6.44736842 6.875 8.875 C4.34227807 10.39463316 2.9039635 10.50819361 0 10 C-1.9375 8.3125 -1.9375 8.3125 -3 6 C-2.33228817 3.60736593 -1.77902615 1.77902615 0 0 Z " fill="#B1E0CF" transform="translate(174,303)"/>
<path d="M0 0 C0.33 0.66 0.66 1.32 1 2 C0.22265625 3.7265625 0.22265625 3.7265625 -0.9375 5.625 C-1.618125 6.73875 -2.29875 7.8525 -3 9 C-3.66 9 -4.32 9 -5 9 C-5.28875 10.134375 -5.5775 11.26875 -5.875 12.4375 C-6.24625 13.613125 -6.6175 14.78875 -7 16 C-7.66 16.33 -8.32 16.66 -9 17 C-9 17.66 -9 18.32 -9 19 C-10.33333333 20.33333333 -11.66666667 21.66666667 -13 23 C-14.6350892 25.55073915 -16.0912159 28.16418863 -17.5625 30.8125 C-18.036875 31.534375 -18.51125 32.25625 -19 33 C-19.66 33 -20.32 33 -21 33 C-21.495 35.475 -21.495 35.475 -22 38 C-23.485 38.495 -23.485 38.495 -25 39 C-23.37457854 34.28810408 -20.84045944 30.38754893 -18.125 26.25 C-17.64828857 25.51789307 -17.17157715 24.78578613 -16.68041992 24.03149414 C-11.3287214 15.87499501 -5.68451043 7.92656865 0 0 Z " fill="#D8FDEE" transform="translate(329,231)"/>
<path d="M0 0 C8.25 0 16.5 0 25 0 C25 0.66 25 1.32 25 2 C23.741875 2.103125 22.48375 2.20625 21.1875 2.3125 C17.86042583 2.69609156 17.86042583 2.69609156 15.125 4.5625 C14.75375 5.036875 14.3825 5.51125 14 6 C13.34 6 12.68 6 12 6 C12 5.01 12 4.02 12 3 C8.04 2.67 4.08 2.34 0 2 C0 1.34 0 0.68 0 0 Z " fill="#5FD296" transform="translate(223,126)"/>
<path d="M0 0 C0.99 0.33 1.98 0.66 3 1 C2.28714844 1.67804688 1.57429688 2.35609375 0.83984375 3.0546875 C-5.68055541 9.35515708 -11.89596364 15.79192727 -16 24 C-16.66 24 -17.32 24 -18 24 C-15.15043186 14.06968679 -7.31791432 6.96758863 0 0 Z " fill="#75CEA7" transform="translate(127,211)"/>
<path d="M0 0 C0.04940499 5.64166991 0.08572193 11.28321413 0.10986328 16.92504883 C0.11992639 18.84466749 0.13357816 20.76427081 0.15087891 22.68383789 C0.17511364 25.44160752 0.18647992 28.19917464 0.1953125 30.95703125 C0.20563507 31.81649857 0.21595764 32.67596588 0.22659302 33.56147766 C0.22674408 34.36208115 0.22689514 35.16268463 0.22705078 35.98754883 C0.231492 36.6914827 0.23593323 37.39541656 0.24050903 38.12068176 C0 40 0 40 -2 43 C-2.66 43 -3.32 43 -4 43 C-4 42.34 -4 41.68 -4 41 C-3.34 41 -2.68 41 -2 41 C-1.67 27.8 -1.34 14.6 -1 1 C-2.98 1.66 -4.96 2.32 -7 3 C-7 3.66 -7 4.32 -7 5 C-8.32 4.34 -9.64 3.68 -11 3 C-4.5 0 -4.5 0 0 0 Z " fill="#D5FDEF" transform="translate(157,198)"/>
<path d="M0 0 C0.33 0 0.66 0 1 0 C1.14886633 5.71074127 1.2574597 11.42034146 1.32958984 17.13256836 C1.35967215 19.07352382 1.40054963 21.01434436 1.45263672 22.95483398 C1.52583255 25.75278065 1.55954101 28.54892336 1.5859375 31.34765625 C1.61690521 32.2083522 1.64787292 33.06904816 1.67977905 33.95582581 C1.68299284 39.77317433 0.37405038 42.6445151 -3.70809937 46.80809021 C-4.13442657 47.20142044 -4.56075378 47.59475067 -5 48 C-5.33 47.34 -5.66 46.68 -6 46 C-3.51612903 39.25806452 -3.51612903 39.25806452 -1 38 C-0.67 25.46 -0.34 12.92 0 0 Z " fill="#DBFEF3" transform="translate(335,179)"/>
<path d="M0 0 C10.23 0 20.46 0 31 0 C31.33 0.66 31.66 1.32 32 2 C25.4 1.67 18.8 1.34 12 1 C12.33 2.65 12.66 4.3 13 6 C11.453125 5.2884375 11.453125 5.2884375 9.875 4.5625 C6.61465838 3.15477612 3.53948917 2.43164502 0 2 C0 1.34 0 0.68 0 0 Z " fill="#64CF99" transform="translate(141,126)"/>
<path d="M0 0 C1.34888732 0.00015905 2.69778075 0.00584927 4.04663086 0.01586914 C5.10991859 0.01799156 5.10991859 0.01799156 6.19468689 0.02015686 C8.46699173 0.02577096 10.73919936 0.03832576 13.01147461 0.05102539 C14.54858257 0.05603858 16.08569206 0.0606018 17.62280273 0.06469727 C21.39823103 0.07574497 25.17358632 0.09301898 28.94897461 0.11352539 C28.94897461 0.77352539 28.94897461 1.43352539 28.94897461 2.11352539 C25.64897461 2.44352539 22.34897461 2.77352539 18.94897461 3.11352539 C18.94897461 2.45352539 18.94897461 1.79352539 18.94897461 1.11352539 C18.12139648 1.27723633 17.29381836 1.44094727 16.44116211 1.60961914 C12.62703272 2.15998009 8.9154396 2.22441594 5.07397461 2.17602539 C4.04143555 2.16925781 4.04143555 2.16925781 2.98803711 2.16235352 C1.30831126 2.15068875 -0.37136914 2.1327581 -2.05102539 2.11352539 C-2.05102539 4.09352539 -2.05102539 6.07352539 -2.05102539 8.11352539 C-3.04102539 8.11352539 -4.03102539 8.11352539 -5.05102539 8.11352539 C-4.03751527 0.15023162 -4.03751527 0.15023162 0 0 Z " fill="#65CE99" transform="translate(339.051025390625,158.886474609375)"/>
<path d="M0 0 C0.66 0 1.32 0 2 0 C2.33 0.99 2.66 1.98 3 3 C3.99 2.34 4.98 1.68 6 1 C5.78601563 1.85722656 5.57203125 2.71445313 5.3515625 3.59765625 C4.9330875 7.64756431 5.76311095 9.7283741 7.375 13.4375 C9.28830917 18.06972219 10.65193169 22.01102082 11 27 C8.63256164 24.63256164 7.99794823 22.72369731 6.8359375 19.58984375 C6.43632812 18.51798828 6.03671875 17.44613281 5.625 16.34179688 C5.2125 15.21837891 4.8 14.09496094 4.375 12.9375 C3.95476562 11.81021484 3.53453125 10.68292969 3.1015625 9.52148438 C0 1.15834263 0 1.15834263 0 0 Z " fill="#63D29A" transform="translate(270,239)"/>
<path d="M0 0 C5.41519149 3.40383465 7.8158894 8.16154093 10 14 C10.61727192 17.05932579 10.84850615 19.86912714 11 23 C10.34 23 9.68 23 9 23 C8.76925781 22.14277344 8.53851563 21.28554687 8.30078125 20.40234375 C6.35365297 13.57585053 4.3588049 8.56958403 0 3 C0 2.01 0 1.02 0 0 Z " fill="#74CFA7" transform="translate(401,217)"/>
<path d="M0 0 C0.99 0.33 1.98 0.66 3 1 C0.92334312 3.44325771 -1.16246541 5.87853301 -3.25 8.3125 C-3.83652344 9.00279297 -4.42304688 9.69308594 -5.02734375 10.40429688 C-5.60097656 11.07138672 -6.17460937 11.73847656 -6.765625 12.42578125 C-7.28930664 13.03848877 -7.81298828 13.65119629 -8.35253906 14.2824707 C-10.09821568 16.10239291 -11.94678757 17.54206304 -14 19 C-14 17.68 -14 16.36 -14 15 C-13.01 15 -12.02 15 -11 15 C-10.9175 14.21625 -10.835 13.4325 -10.75 12.625 C-10.5025 11.75875 -10.255 10.8925 -10 10 C-8.0625 8.9375 -8.0625 8.9375 -6 8 C-4.73195434 5.9664052 -4.73195434 5.9664052 -4 4 C-3.01 4 -2.02 4 -1 4 C-0.67 2.68 -0.34 1.36 0 0 Z " fill="#D8FDED" transform="translate(273,305)"/>
<path d="M0 0 C0.99 0.66 1.98 1.32 3 2 C0.69305023 5.50368828 -1.62146385 9.00231275 -3.9375 12.5 C-4.9265332 14.00240234 -4.9265332 14.00240234 -5.93554688 15.53515625 C-6.56396484 16.48261719 -7.19238281 17.43007812 -7.83984375 18.40625 C-8.42113037 19.28603516 -9.00241699 20.16582031 -9.60131836 21.07226562 C-10.0628833 21.70841797 -10.52444824 22.34457031 -11 23 C-11.33 23 -11.66 23 -12 23 C-12 21.35 -12 19.7 -12 18 C-11.34 18 -10.68 18 -10 18 C-10 17.01 -10 16.02 -10 15 C-9.34 15 -8.68 15 -8 15 C-7.896875 14.4121875 -7.79375 13.824375 -7.6875 13.21875 C-6.6917721 10.00526452 -4.65044544 8.18797114 -2.375 5.78125 C-0.88102254 3.84587011 -0.41872286 2.38672028 0 0 Z " fill="#D9FDF0" transform="translate(322,232)"/>
<path d="M0 0 C1.98 0 3.96 0 6 0 C6.6875 2.3125 6.6875 2.3125 7 5 C5.5625 6.8125 5.5625 6.8125 4 8 C3.67 7.67 3.34 7.34 3 7 C2.67 7.99 2.34 8.98 2 10 C1.34 10 0.68 10 0 10 C0 6.7 0 3.4 0 0 Z " fill="#ADE1CC" transform="translate(334,303)"/>
<path d="M0 0 C-0.33 0.66 -0.66 1.32 -1 2 C-2.32 1.67 -3.64 1.34 -5 1 C-5.33 1.66 -5.66 2.32 -6 3 C-8.73046875 3.37890625 -8.73046875 3.37890625 -12.1875 3.5625 C-16.53147459 3.80576258 -20.71875157 4.21391341 -25 5 C-25 4.34 -25 3.68 -25 3 C-16.64126728 -0.58231402 -8.92014943 -0.29551415 0 0 Z " fill="#76CDA3" transform="translate(185,191)"/>
<path d="M0 0 C0.33 0 0.66 0 1 0 C1 2.31 1 4.62 1 7 C2.26457031 6.97679687 3.52914063 6.95359375 4.83203125 6.9296875 C6.4921816 6.91092874 8.15233833 6.89272865 9.8125 6.875 C11.06256836 6.84986328 11.06256836 6.84986328 12.33789062 6.82421875 C13.14033203 6.81777344 13.94277344 6.81132812 14.76953125 6.8046875 C15.50792236 6.79421387 16.24631348 6.78374023 17.00708008 6.77294922 C19 7 19 7 22 9 C11.11 9.495 11.11 9.495 0 10 C0 6.7 0 3.4 0 0 Z " fill="#D2FDEC" transform="translate(356,194)"/>
<path d="M0 0 C0.66 0.66 1.32 1.32 2 2 C1.47792969 2.268125 0.95585937 2.53625 0.41796875 2.8125 C-6.15699931 6.31300839 -12.05683325 10.52318467 -18 15 C-18.33 14.01 -18.66 13.02 -19 12 C-18.34 12 -17.68 12 -17 12 C-17 11.34 -17 10.68 -17 10 C-16.360625 9.896875 -15.72125 9.79375 -15.0625 9.6875 C-14.0415625 9.3471875 -14.0415625 9.3471875 -13 9 C-12.67 8.01 -12.34 7.02 -12 6 C-11.01 5.67 -10.02 5.34 -9 5 C-8.34 4.34 -7.68 3.68 -7 3 C-4.68351201 1.96157435 -2.35096976 0.9578025 0 0 Z " fill="#DEFEF0" transform="translate(145,197)"/>
<path d="M0 0 C0.99 0.66 1.98 1.32 3 2 C3.34057617 4.79736328 3.34057617 4.79736328 3.29296875 8.3203125 C3.28330078 9.57714844 3.27363281 10.83398438 3.26367188 12.12890625 C3.23853516 13.44761719 3.21339844 14.76632813 3.1875 16.125 C3.17245483 17.46482903 3.15876613 18.80467404 3.14648438 20.14453125 C3.11102872 23.43008842 3.06160849 26.71484582 3 30 C0.69 30 -1.62 30 -4 30 C-4.33 30.66 -4.66 31.32 -5 32 C-5 30.68 -5 29.36 -5 28 C-2.69 28 -0.38 28 2 28 C1.86100313 24.08305929 1.71261867 20.16652898 1.5625 16.25 C1.52318359 15.13882813 1.48386719 14.02765625 1.44335938 12.8828125 C1.40146484 11.81289062 1.35957031 10.74296875 1.31640625 9.640625 C1.27974854 8.65610352 1.24309082 7.67158203 1.20532227 6.65722656 C1.02401258 4.31076449 0.65668181 2.25281588 0 0 Z " fill="#D2FBEB" transform="translate(231,129)"/>
<path d="M0 0 C3.3 0.33 6.6 0.66 10 1 C10 1.66 10 2.32 10 3 C1.09 3 -7.82 3 -17 3 C-17 2.34 -17 1.68 -17 1 C-11.39 1.33 -5.78 1.66 0 2 C0 1.34 0 0.68 0 0 Z " fill="#6DC79B" transform="translate(246,284)"/>
<path d="M0 0 C0.44117322 4.49996683 0.52867608 6.34611117 -2.375 9.9375 C-5 12 -5 12 -7 12 C-6.67 9.36 -6.34 6.72 -6 4 C-5.34 4 -4.68 4 -4 4 C-4 3.01 -4 2.02 -4 1 C-1 0 -1 0 0 0 Z " fill="#EDFEFA" transform="translate(310,248)"/>
<path d="M0 0 C0.99 0 1.98 0 3 0 C3.33 1.32 3.66 2.64 4 4 C4.66 4 5.32 4 6 4 C6 4.99 6 5.98 6 7 C7.32 7.33 8.64 7.66 10 8 C10.103125 8.7425 10.20625 9.485 10.3125 10.25 C11.04253504 13.17014018 12.06789398 14.73187554 14 17 C13.34 17.33 12.68 17.66 12 18 C7.65346984 12.16594374 3.42752566 6.4266106 0 0 Z " fill="#6BD39F" transform="translate(181,169)"/>
<path d="M0 0 C0 0.66 0 1.32 0 2 C-3.37698788 4.04173535 -5.94546223 4.23525039 -9.859375 4.1953125 C-10.97441406 4.18886719 -12.08945313 4.18242187 -13.23828125 4.17578125 C-14.39714844 4.15902344 -15.55601562 4.14226562 -16.75 4.125 C-17.92433594 4.11597656 -19.09867188 4.10695313 -20.30859375 4.09765625 C-23.20593536 4.07410063 -26.10286441 4.04120652 -29 4 C-29 3.67 -29 3.34 -29 3 C-27.80503906 2.95101563 -26.61007813 2.90203125 -25.37890625 2.8515625 C-16.98704874 2.46987402 -8.16582214 0 0 0 Z " fill="#C9FCE5" transform="translate(208,361)"/>
<path d="M0 0 C0.66 0 1.32 0 2 0 C1.3398218 3.75587869 -0.34917232 6.48635035 -2.375 9.6875 C-2.98085938 10.66074219 -3.58671875 11.63398438 -4.2109375 12.63671875 C-6 15 -6 15 -9 16 C-8.67 14.02 -8.34 12.04 -8 10 C-7.34 10 -6.68 10 -6 10 C-4.47987963 7.74572728 -4.47987963 7.74572728 -3 5 C-1.4375 2.1875 -1.4375 2.1875 0 0 Z " fill="#70CFA5" transform="translate(300,270)"/>
<path d="M0 0 C1 3 1 3 -0.25 6.625 C-2 10 -2 10 -5 11 C-6.21869929 13.50447516 -6.21869929 13.50447516 -7 16 C-7.99 16 -8.98 16 -10 16 C-6.93978541 10.46807362 -3.5552157 5.22616707 0 0 Z " fill="#D4FCED" transform="translate(303,270)"/>
<path d="M0 0 C1.65 1.65 3.3 3.3 5 5 C5.33 3.35 5.66 1.7 6 0 C6.33 0 6.66 0 7 0 C7 3.3 7 6.6 7 10 C5.68 8.68 4.36 7.36 3 6 C2.67 7.32 2.34 8.64 2 10 C1.34 10 0.68 10 0 10 C0 6.7 0 3.4 0 0 Z " fill="#95D6B9" transform="translate(152,303)"/>
<path d="M0 0 C0.66 0 1.32 0 2 0 C2 9.9 2 19.8 2 30 C-2 28 -2 28 -3 26 C-1.68 26.33 -0.36 26.66 1 27 C0.67 18.09 0.34 9.18 0 0 Z " fill="#5ED098" transform="translate(234,213)"/>
<path d="M0 0 C0.99 0 1.98 0 3 0 C4.32 2.64 5.64 5.28 7 8 C7.66 8 8.32 8 9 8 C9 8.66 9 9.32 9 10 C9.99 10.33 10.98 10.66 12 11 C11.67 11.99 11.34 12.98 11 14 C6.04010518 10.30891548 2.89221964 6.47730092 0 1 C0 0.67 0 0.34 0 0 Z " fill="#D8FCEE" transform="translate(112,322)"/>
<path d="M0 0 C1.76647063 2.64970595 2.97014997 5.01498099 4.1875 7.9375 C4.55230469 8.79214844 4.91710937 9.64679688 5.29296875 10.52734375 C6.05225403 13.18274477 5.93187432 14.44179725 5 17 C3 15.9375 3 15.9375 1 14 C0.8125 10.5 0.8125 10.5 1 7 C0.67 6.01 0.34 5.02 0 4 C0 2.68 0 1.36 0 0 Z " fill="#D3FBEA" transform="translate(265,227)"/>
<path d="M0 0 C1.485 0.99 1.485 0.99 3 2 C3 2.99 3 3.98 3 5 C3.66 5 4.32 5 5 5 C5.70005949 7.07914664 6.38462244 9.16351586 7.0625 11.25 C7.44535156 12.41015625 7.82820313 13.5703125 8.22265625 14.765625 C8.98615523 17.94239464 8.91066802 19.01550543 8 22 C6.85017194 19.08489248 5.70584512 16.16765566 4.5625 13.25 C4.23701172 12.425 3.91152344 11.6 3.57617188 10.75 C3.26357422 9.95078125 2.95097656 9.1515625 2.62890625 8.328125 C2.34088135 7.5949707 2.05285645 6.86181641 1.75610352 6.10644531 C1.03135375 4.0873491 0.4810009 2.08915413 0 0 Z " fill="#68D29D" transform="translate(254,198)"/>
<path d="M0 0 C-1.34684007 4.04052022 -3.44847477 4.77159201 -7 7 C-7.680625 7.556875 -8.36125 8.11375 -9.0625 8.6875 C-11.35126065 10.23795076 -13.28371419 10.62273808 -16 11 C-12.20918993 6.84233734 -5.90642573 0 0 0 Z " fill="#DAFDEF" transform="translate(144,203)"/>
<path d="M0 0 C2.64465038 3.1254959 3.84414715 6.08788267 5 10 C4.34 10 3.68 10 3 10 C2.67 9.34 2.34 8.68 2 8 C-0.02463255 7.34786708 -0.02463255 7.34786708 -2 7 C-2.33 7.99 -2.66 8.98 -3 10 C-3.33 9.34 -3.66 8.68 -4 8 C-3.22265625 6.0546875 -3.22265625 6.0546875 -2.0625 3.875 C-1.49208984 2.78832031 -1.49208984 2.78832031 -0.91015625 1.6796875 C-0.60980469 1.12539063 -0.30945313 0.57109375 0 0 Z " fill="#95CFB7" transform="translate(318,303)"/>
<path d="M0 0 C0.99 0 1.98 0 3 0 C3 1.98 3 3.96 3 6 C2.01 6.495 2.01 6.495 1 7 C0.67 7.99 0.34 8.98 0 10 C-0.66 10 -1.32 10 -2 10 C-2.6875 8.375 -2.6875 8.375 -3 6 C-1.5625 2.75 -1.5625 2.75 0 0 Z " fill="#B4E6D2" transform="translate(293,303)"/>
<path d="M0 0 C3.34905453 3.34905453 3.89470285 5.49378854 5 10 C4.34 9.67 3.68 9.34 3 9 C3 8.34 3 7.68 3 7 C1.02463255 7.34786708 1.02463255 7.34786708 -1 8 C-1.33 8.66 -1.66 9.32 -2 10 C-2.66 9.67 -3.32 9.34 -4 9 C-2.68 6.03 -1.36 3.06 0 0 Z " fill="#9CD9BF" transform="translate(217,303)"/>
<path d="M0 0 C0 0.66 0 1.32 0 2 C-1.32 2 -2.64 2 -4 2 C-4 4.97 -4 7.94 -4 11 C-4.33 11 -4.66 11 -5 11 C-5 8.03 -5 5.06 -5 2 C-5.99 2 -6.98 2 -8 2 C-8 1.01 -8 0.02 -8 -1 C-4.59745511 -2.2151946 -3.06748874 -1.86240388 0 0 Z " fill="#B3E2D0" transform="translate(360,302)"/>
<path d="M0 0 C-12.48519362 3.62870159 -12.48519362 3.62870159 -19 2 C-19 1.67 -19 1.34 -19 1 C-16.58612388 0.44156597 -14.17055514 -0.09704158 -11.75 -0.625 C-10.72712891 -0.86476563 -10.72712891 -0.86476563 -9.68359375 -1.109375 C-5.80018471 -1.93884101 -3.3253283 -2.38258059 0 0 Z " fill="#7DD3A7" transform="translate(213,360)"/>
<path d="M0 0 C0.58394531 0.21140625 1.16789063 0.4228125 1.76953125 0.640625 C0.33920288 1.81607305 -1.10000117 2.98072762 -2.54296875 4.140625 C-3.34347656 4.7903125 -4.14398438 5.44 -4.96875 6.109375 C-7.23046875 7.640625 -7.23046875 7.640625 -10.23046875 7.640625 C-9.14947399 4.39764071 -8.57420259 3.82449974 -5.91796875 1.890625 C-5.32371094 1.44203125 -4.72945312 0.9934375 -4.1171875 0.53125 C-2.23046875 -0.359375 -2.23046875 -0.359375 0 0 Z " fill="#6ECFA0" transform="translate(237.23046875,344.359375)"/>
<path d="M0 0 C1.97986082 0.11347619 3.95891598 0.2410935 5.9375 0.375 C7.03964844 0.44460937 8.14179688 0.51421875 9.27734375 0.5859375 C10.62505859 0.79089844 10.62505859 0.79089844 12 1 C12.33 1.66 12.66 2.32 13 3 C8.05 3 3.1 3 -2 3 C-1.34 2.01 -0.68 1.02 0 0 Z " fill="#D7FEEF" transform="translate(172,188)"/>
<path d="M0 0 C0.66 0 1.32 0 2 0 C2 0.66 2 1.32 2 2 C2.99 2.33 3.98 2.66 5 3 C6.47666292 6.49029418 6.07164685 10.27436386 6 14 C3.74402173 11.74402173 3.03425808 9.95396133 1.875 7 C1.52179688 6.113125 1.16859375 5.22625 0.8046875 4.3125 C0 2 0 2 0 0 Z " fill="#62D49C" transform="translate(248,182)"/>
<path d="M0 0 C0.86625 0.37125 0.86625 0.37125 1.75 0.75 C1.13125 0.811875 0.5125 0.87375 -0.125 0.9375 C-2.41851455 1.56241558 -2.41851455 1.56241558 -3.4375 3.75 C-4.51218993 7.7180859 -4.91145304 11.66070912 -5.25 15.75 C-5.58 15.75 -5.91 15.75 -6.25 15.75 C-6.35841951 13.83458862 -6.43578079 11.91740227 -6.5 10 C-6.54640625 8.93265625 -6.5928125 7.8653125 -6.640625 6.765625 C-6.25 3.75 -6.25 3.75 -4.375 1.34375 C-2.25 -0.25 -2.25 -0.25 0 0 Z " fill="#D5FDEE" transform="translate(362.25,161.25)"/>
<path d="M0 0 C0.33 0.66 0.66 1.32 1 2 C0.505 2.4125 0.01 2.825 -0.5 3.25 C-2.43386092 5.12202338 -2.43386092 5.12202338 -2 9 C-4.31 8.67 -6.62 8.34 -9 8 C-6.21751321 5.06293061 -3.12061789 2.56584137 0 0 Z " fill="#DEFCF1" transform="translate(400,275)"/>
<path d="M0 0 C3.9252025 3.70090521 6.94580156 7.54959656 10 12 C9.01 12.495 9.01 12.495 8 13 C7.67 12.34 7.34 11.68 7 11 C6.35546875 10.72414062 5.7109375 10.44828125 5.046875 10.1640625 C2.33599299 8.62237769 2.09272928 7.32455246 1.25 4.375 C1.00765625 3.55773437 0.7653125 2.74046875 0.515625 1.8984375 C0.34546875 1.27195313 0.1753125 0.64546875 0 0 Z " fill="#67D39D" transform="translate(184,144)"/>
<path d="M0 0 C1.5625 1.625 1.5625 1.625 3 4 C2.6875 7.25 2.6875 7.25 2 10 C0.35 8.35 -1.3 6.7 -3 5 C-2.01 3.35 -1.02 1.7 0 0 Z " fill="#E1FDF4" transform="translate(156,299)"/>
<path d="M0 0 C0.33 1.32 0.66 2.64 1 4 C0.34 4 -0.32 4 -1 4 C-1.061875 4.721875 -1.12375 5.44375 -1.1875 6.1875 C-2.24456647 9.84657625 -4.20550071 11.49211602 -7 14 C-7.66 13.67 -8.32 13.34 -9 13 C-6.03 8.71 -3.06 4.42 0 0 Z " fill="#D1FBE9" transform="translate(292,286)"/>
<path d="M0 0 C4.67494357 1.47629797 4.67494357 1.47629797 6.125 3.8125 C6.41375 4.534375 6.7025 5.25625 7 6 C7.8353125 7.2684375 7.8353125 7.2684375 8.6875 8.5625 C9.120625 9.366875 9.55375 10.17125 10 11 C9.67 11.99 9.34 12.98 9 14 C7.49717827 11.85609361 5.99764203 9.71001973 4.5 7.5625 C4.07074219 6.95083984 3.64148438 6.33917969 3.19921875 5.70898438 C0 1.11328125 0 1.11328125 0 0 Z " fill="#69D29D" transform="translate(202,198)"/>
<path d="M0 0 C1.67542976 0.28604898 3.34385343 0.61781233 5 1 C4.67 2.65 4.34 4.3 4 6 C2.68 6 1.36 6 0 6 C-0.38218767 4.34385343 -0.71395102 2.67542976 -1 1 C-0.67 0.67 -0.34 0.34 0 0 Z " fill="#E7FDF4" transform="translate(175,304)"/>
<path d="M0 0 C2 3 2 3 1.8125 4.8125 C0.75488765 7.65991787 -0.59395622 10.31017712 -2 13 C-2.66 13 -3.32 13 -4 13 C-3.52140759 11.39566191 -3.04210442 9.79153584 -2.5625 8.1875 C-2.29566406 7.29417969 -2.02882813 6.40085938 -1.75390625 5.48046875 C-1.19612127 3.64526945 -0.60655425 1.81966274 0 0 Z " fill="#D7FCEE" transform="translate(328,186)"/>
<path d="M0 0 C3.67033927 3.27708863 5.69281189 6.71522208 8 11 C7.34 11 6.68 11 6 11 C6 10.34 6 9.68 6 9 C5.01 9.33 4.02 9.66 3 10 C1.5783681 6.6828589 0.60990891 3.55780196 0 0 Z " fill="#D8FCEF" transform="translate(176,163)"/>
<path d="M0 0 C3.00617269 3.00617269 2.59585316 5.82381598 3 10 C2.34 9.67 1.68 9.34 1 9 C0.375 6.9375 0.375 6.9375 0 5 C-0.66 6.65 -1.32 8.3 -2 10 C-2.66 9.67 -3.32 9.34 -4 9 C-2.93940067 5.818202 -1.52448631 2.9826906 0 0 Z " fill="#93D3B6" transform="translate(300,303)"/>
<path d="M0 0 C0.99 0.33 1.98 0.66 3 1 C3 1.99 3 2.98 3 4 C5.64 3.67 8.28 3.34 11 3 C11.33 3.99 11.66 4.98 12 6 C8.7 5.67 5.4 5.34 2 5 C1.34 3.35 0.68 1.7 0 0 Z " fill="#C8F9E6" transform="translate(244,279)"/>
<path d="M0 0 C2.72957339 2.35735884 3.88893396 4.58133526 5 8 C5 8.99 5 9.98 5 11 C4.34 11 3.68 11 3 11 C2.67 10.01 2.34 9.02 2 8 C1.34 7.67 0.68 7.34 0 7 C-1.26229508 2.52459016 -1.26229508 2.52459016 0 0 Z " fill="#D6FDEE" transform="translate(404,224)"/>
<path d="M0 0 C2.21356952 2.21356952 2.8284131 2.91143577 3 6 C1.125 9.25 1.125 9.25 -1 12 C-1.33 12 -1.66 12 -2 12 C-2.26252625 7.66831683 -1.29243536 4.1196377 0 0 Z " fill="#D3FCED" transform="translate(286,282)"/>
<path d="M0 0 C0 0.66 0 1.32 0 2 C-3.96 2 -7.92 2 -12 2 C-8.24587786 -1.75412214 -4.98458941 -1.01957511 0 0 Z " fill="#57D396" transform="translate(246,284)"/>
<path d="M0 0 C0.66 0.99 1.32 1.98 2 3 C0.61133677 3.9893091 -0.78629851 4.96603078 -2.1875 5.9375 C-2.96480469 6.48277344 -3.74210937 7.02804687 -4.54296875 7.58984375 C-7.07950299 9.0456289 -9.1218182 9.59613435 -12 10 C-9.5105071 7.93727731 -7.11146757 6.06480673 -4.3125 4.4375 C-1.74137316 3.06034626 -1.74137316 3.06034626 0 0 Z " fill="#D6FEEE" transform="translate(395,273)"/>
<path d="M0 0 C2.0859375 3.6328125 2.0859375 3.6328125 1.3125 6.9375 C0.08037324 9.81246245 -1.30270632 12.37690977 -3 15 C-4.57156655 11.8568669 -3.11705576 9.634536 -2.0625 6.375 C-1.68222656 5.18648438 -1.30195313 3.99796875 -0.91015625 2.7734375 C-0.60980469 1.85820312 -0.30945313 0.94296875 0 0 Z " fill="#D7FDEB" transform="translate(412,251)"/>
<path d="M0 0 C3.73872495 1.69656426 5.6288741 3.61267729 8 7 C8 7.66 8 8.32 8 9 C8.66 9 9.32 9 10 9 C9.67 9.99 9.34 10.98 9 12 C5.0963126 8.53005564 2.63411025 4.44775994 0 0 Z " fill="#D7FCED" transform="translate(172,126)"/>
<path d="M0 0 C0.804375 0.185625 1.60875 0.37125 2.4375 0.5625 C3.283125 0.706875 4.12875 0.85125 5 1 C5.33 0.67 5.66 0.34 6 0 C6.99 0.66 7.98 1.32 9 2 C9 2.99 9 3.98 9 5 C7.02 4.34 5.04 3.68 3 3 C3 2.34 3 1.68 3 1 C2.34 1 1.68 1 1 1 C0.67 1.99 0.34 2.98 0 4 C-0.66 3.67 -1.32 3.34 -2 3 C-1.34 2.01 -0.68 1.02 0 0 Z " fill="#DAFCF0" transform="translate(316,310)"/>
<path d="M0 0 C0.99 0.99 1.98 1.98 3 3 C1.02 5.97 -0.96 8.94 -3 12 C-4 10 -4 10 -3.22265625 7.6171875 C-2.83980469 6.71226562 -2.45695312 5.80734375 -2.0625 4.875 C-1.68222656 3.96492188 -1.30195313 3.05484375 -0.91015625 2.1171875 C-0.60980469 1.41851562 -0.30945313 0.71984375 0 0 Z " fill="#BEFCDF" transform="translate(297,269)"/>
<path d="M0 0 C0.515625 0.309375 1.03125 0.61875 1.5625 0.9375 C4.66665423 2.29059287 7.65115007 2.61359424 11 3 C11 3.66 11 4.32 11 5 C8.03 5 5.06 5 2 5 C1.34 3.35 0.68 1.7 0 0 Z " fill="#67CE99" transform="translate(160,239)"/>
<path d="M0 0 C0.33 0 0.66 0 1 0 C1 1.98 1 3.96 1 6 C0.34 6 -0.32 6 -1 6 C-2.70680947 7.62553283 -4.37660195 9.29115995 -6 11 C-5.39196574 7.87691494 -4.37985958 5.80748338 -2.5 3.25 C-2.0565625 2.63640625 -1.613125 2.0228125 -1.15625 1.390625 C-0.7746875 0.93171875 -0.393125 0.4728125 0 0 Z " fill="#71D0A3" transform="translate(336,218)"/>
<path d="M0 0 C3.3 1.65 6.6 3.3 10 5 C9.01 5.495 9.01 5.495 8 6 C7.34 5.67 6.68 5.34 6 5 C6 5.66 6 6.32 6 7 C5.34 7 4.68 7 4 7 C4 6.34 4 5.68 4 5 C3.34 4.67 2.68 4.34 2 4 C1.34 2.68 0.68 1.36 0 0 Z " fill="#DAFEF0" transform="translate(384,207)"/>
<path d="M0 0 C4.05281712 1.22527029 7.44360764 2.69880494 11 5 C10.67 5.99 10.34 6.98 10 8 C8.33055479 6.85821872 6.6645052 5.71147095 5 4.5625 C4.071875 3.92441406 3.14375 3.28632813 2.1875 2.62890625 C1.465625 2.09136719 0.74375 1.55382812 0 1 C0 0.67 0 0.34 0 0 Z " fill="#D2FCEC" transform="translate(132,344)"/>
<path d="M0 0 C0.66 0 1.32 0 2 0 C2.268125 0.804375 2.53625 1.60875 2.8125 2.4375 C3.204375 3.283125 3.59625 4.12875 4 5 C4.99 5.33 5.98 5.66 7 6 C6.34 7.65 5.68 9.3 5 11 C0 3.5 0 3.5 0 0 Z " fill="#CAFAE5" transform="translate(294,248)"/>
<path d="M0 0 C-3.63 2.31 -7.26 4.62 -11 7 C-11 6.01 -11 5.02 -11 4 C-10.34 4 -9.68 4 -9 4 C-9 3.34 -9 2.68 -9 2 C-5.33876089 -0.74592933 -4.63002084 -1.15750521 0 0 Z " fill="#D1FCEB" transform="translate(137,205)"/>
<path d="M0 0 C9.6613255 0.61041054 9.6613255 0.61041054 14 4 C14.33 4.66 14.66 5.32 15 6 C10 4.33333333 5 2.66666667 0 1 C0 0.67 0 0.34 0 0 Z " fill="#D1FCEB" transform="translate(379,203)"/>
<path d="M0 0 C3.36720387 1.39332574 4.9859524 2.9789286 7 6 C6.01 7.485 6.01 7.485 5 9 C4.16094435 7.87926138 3.32892169 6.75325453 2.5 5.625 C2.0359375 4.99851563 1.571875 4.37203125 1.09375 3.7265625 C0 2 0 2 0 0 Z " fill="#DBFDEF" transform="translate(198,161)"/>
<path d="M0 0 C2.52349243 3.12432397 4.27256146 6.38060496 6 10 C5.34 10 4.68 10 4 10 C4 9.34 4 8.68 4 8 C3.01 8.33 2.02 8.66 1 9 C0.29925156 5.846632 0 3.27275026 0 0 Z " fill="#D1FBE8" transform="translate(105,315)"/>
<path d="M0 0 C3.875 1.875 3.875 1.875 5 3 C5.04080783 4.99958364 5.04254356 7.00045254 5 9 C4.01 9.495 4.01 9.495 3 10 C3 8.02 3 6.04 3 4 C2.34 4 1.68 4 1 4 C0.67 2.68 0.34 1.36 0 0 Z " fill="#70D5A3" transform="translate(186,192)"/>
<path d="M0 0 C2.21399303 3.79541663 3.00980198 7.75629421 4 12 C1.4375 9.9375 1.4375 9.9375 -1 7 C-0.8125 3.1875 -0.8125 3.1875 0 0 Z " fill="#D2FBEC" transform="translate(99,298)"/>
<path d="M0 0 C2.25 0.875 2.25 0.875 4 2 C-1.24385089 3.7479503 -5.47322267 4.19392201 -11 4 C-11 3.67 -11 3.34 -11 3 C-9.9275 2.87625 -8.855 2.7525 -7.75 2.625 C-4.14766467 2.23409624 -4.14766467 2.23409624 -1.8125 0.8125 C-1.214375 0.544375 -0.61625 0.27625 0 0 Z " fill="#D4FBE8" transform="translate(379,282)"/>
<path d="M0 0 C0.75 1.6875 0.75 1.6875 1 4 C-0.9375 6.75 -0.9375 6.75 -3 9 C-3.99 8.67 -4.98 8.34 -6 8 C-5.38125 7.236875 -4.7625 6.47375 -4.125 5.6875 C-1.94402948 3.00374191 -1.94402948 3.00374191 0 0 Z " fill="#D9FDEF" transform="translate(407,266)"/>
<path d="M0 0 C5.57142857 5.14285714 5.57142857 5.14285714 6 9 C4.68 8.67 3.36 8.34 2 8 C1.34 5.36 0.68 2.72 0 0 Z " fill="#CFFBE7" transform="translate(217,220)"/>
<path d="M0 0 C0 3.20395416 -0.74335022 5.09399739 -2 8 C-3.65 8 -5.3 8 -7 8 C-6.02133662 6.85373678 -5.04205413 5.70800212 -4.0625 4.5625 C-3.51722656 3.92441406 -2.97195312 3.28632813 -2.41015625 2.62890625 C-1.63204305 1.73008851 -0.84063472 0.84063472 0 0 Z " fill="#DAFDEF" transform="translate(127,214)"/>
<path d="M0 0 C0.66666667 1.33333333 1.33333333 2.66666667 2 4 C2.53625 5.03125 3.0725 6.0625 3.625 7.125 C5 10 5 10 5 12 C4.01 11.67 3.02 11.34 2 11 C2 9.68 2 8.36 2 7 C1.34 7 0.68 7 0 7 C0 4.69 0 2.38 0 0 Z " fill="#D0FBE7" transform="translate(253,196)"/>
<path d="M0 0 C2.60608273 2.5162178 4.89381685 5.05134359 7 8 C6.67 8.66 6.34 9.32 6 10 C2.46413986 6.82679218 0.41421969 4.83256305 0 0 Z " fill="#CDFBE9" transform="translate(192,185)"/>
<path d="M0 0 C0.99 0 1.98 0 3 0 C3.66 3.96 4.32 7.92 5 12 C2.65085508 9.65085508 2.26859643 8.04320554 1.375 4.875 C1.11460937 3.96492187 0.85421875 3.05484375 0.5859375 2.1171875 C0.39257812 1.41851562 0.19921875 0.71984375 0 0 Z " fill="#CFFBE9" transform="translate(259,158)"/>
<path d="M0 0 C0 0.33 0 0.66 0 1 C-1.11375 1.309375 -2.2275 1.61875 -3.375 1.9375 C-6.7945155 2.82326483 -6.7945155 2.82326483 -9 4 C-9.65555119 6.52733235 -9.65555119 6.52733235 -10 9 C-10.33 9 -10.66 9 -11 9 C-11.35555556 3.66666667 -11.35555556 3.66666667 -10 1.125 C-6.74686316 -0.70488947 -3.68609891 -0.18128355 0 0 Z " fill="#D6FDEF" transform="translate(248,128)"/>
<path d="M0 0 C0.33 0.66 0.66 1.32 1 2 C0.67 2.66 0.34 3.32 0 4 C-0.99 4.33 -1.98 4.66 -3 5 C-4.66710346 6.49985609 -4.66710346 6.49985609 -6 8 C-6.66 7.34 -7.32 6.68 -8 6 C-5.36 4.02 -2.72 2.04 0 0 Z " fill="#DBFDEE" transform="translate(252,334)"/>
<path d="M0 0 C0.66 0.33 1.32 0.66 2 1 C2.625 3.5625 2.625 3.5625 3 6 C0.36 6 -2.28 6 -5 6 C-3.68 5.67 -2.36 5.34 -1 5 C-0.67 3.35 -0.34 1.7 0 0 Z " fill="#54D691" transform="translate(158,237)"/>
<path d="M0 0 C2.34914492 2.34914492 2.73140357 3.95679446 3.625 7.125 C3.88539063 8.03507813 4.14578125 8.94515625 4.4140625 9.8828125 C4.70410156 10.93082031 4.70410156 10.93082031 5 12 C2.69857565 10.21825212 1.19965609 8.83695835 0.51171875 5.953125 C0.27676898 3.9753389 0.13248542 1.98728128 0 0 Z " fill="#73D4A3" transform="translate(283,221)"/>
<path d="M0 0 C2.96404505 2.80804268 5.44499019 5.18315774 7 9 C5.1875 8.8125 5.1875 8.8125 3 8 C0.85802506 5.09303401 0 3.64478912 0 0 Z " fill="#D2FCEB" transform="translate(201,198)"/>
<path d="M0 0 C2.97 0 5.94 0 9 0 C9 0.99 9 1.98 9 3 C6.03 2.67 3.06 2.34 0 2 C0 1.34 0 0.68 0 0 Z " fill="#6ED09D" transform="translate(223,126)"/>
<path d="M0 0 C0 0.66 0 1.32 0 2 C-3.4019487 4.09350689 -6.05272412 4.17942163 -10 4 C-6.74659338 1.32755885 -4.23938937 0 0 0 Z " fill="#D8FDED" transform="translate(208,361)"/>
<path d="M0 0 C3.4375 0.8125 3.4375 0.8125 7 2 C7.33 2.99 7.66 3.98 8 5 C6.68 5 5.36 5 4 5 C1.75 2.5 1.75 2.5 0 0 Z " fill="#D3FCEE" transform="translate(125,338)"/>
<path d="M0 0 C0.66 0.99 1.32 1.98 2 3 C1.34 3 0.68 3 0 3 C-0.33 3.66 -0.66 4.32 -1 5 C-2.30915279 6.03145371 -3.64082143 7.03542166 -5 8 C-5.66 7.67 -6.32 7.34 -7 7 C-4.69 4.69 -2.38 2.38 0 0 Z " fill="#D6FEEC" transform="translate(265,321)"/>
<path d="M0 0 C1.98 0.66 3.96 1.32 6 2 C5.67 2.99 5.34 3.98 5 5 C2.69 4.67 0.38 4.34 -2 4 C-1.34 2.68 -0.68 1.36 0 0 Z " fill="#DFFEF4" transform="translate(337,299)"/>
<path d="M0 0 C3.33557632 2.9905167 5.15083921 5.93184627 7 10 C3.78634109 8.89184175 3.0085776 8.01470446 1.25 5 C0 2 0 2 0 0 Z " fill="#6DD0A0" transform="translate(216,188)"/>
<path d="M0 0 C0.66 0.33 1.32 0.66 2 1 C1.01 2.32 0.02 3.64 -1 5 C-2.65 4.67 -4.3 4.34 -6 4 C-4.03617993 2.49440461 -2.21736634 1.10868317 0 0 Z " fill="#D3FCEC" transform="translate(228,352)"/>
<path d="M0 0 C0.66 0.66 1.32 1.32 2 2 C0.69593116 4.01920337 -0.63823419 6.01924973 -2 8 C-2.33 8 -2.66 8 -3 8 C-3.36923077 3.44615385 -3.36923077 3.44615385 -1.5 1.1875 C-1.005 0.795625 -0.51 0.40375 0 0 Z " fill="#DBFDEE" transform="translate(279,297)"/>
<path d="M0 0 C2.18975773 3.28463659 2.99806563 6.20696275 4 10 C1.24049934 7.50754779 -0.62030099 5.79699009 -1 2 C-0.67 1.34 -0.34 0.68 0 0 Z " fill="#D7FDEA" transform="translate(247,181)"/>
<path d="M0 0 C1.70884005 1.62339805 3.37446717 3.29319053 5 5 C5 5.66 5 6.32 5 7 C3.68 6.67 2.36 6.34 1 6 C0.67 4.02 0.34 2.04 0 0 Z " fill="#67D19A" transform="translate(202,169)"/>
<path d="M0 0 C2.0625 0.4375 2.0625 0.4375 4 1 C3.01 1.33 2.02 1.66 1 2 C1 3.98 1 5.96 1 8 C0.01 8 -0.98 8 -2 8 C-1.125 1.125 -1.125 1.125 0 0 Z " fill="#6AD39C" transform="translate(336,159)"/>
<path d="M0 0 C1.32 0 2.64 0 4 0 C4.33 0.99 4.66 1.98 5 3 C2.69 3.33 0.38 3.66 -2 4 C-1.34 2.68 -0.68 1.36 0 0 Z " fill="#D8FCED" transform="translate(216,310)"/>
<path d="M0 0 C0.99 1.32 1.98 2.64 3 4 C2.67 4.66 2.34 5.32 2 6 C1.01 6 0.02 6 -1 6 C-1.33 5.01 -1.66 4.02 -2 3 C-1.34 2.01 -0.68 1.02 0 0 Z " fill="#A6E5CB" transform="translate(318,303)"/>
<path d="M0 0 C1.95418308 2.93127462 2.64700993 4.55834679 3 8 C2.34 8.66 1.68 9.32 1 10 C-1.125 3.375 -1.125 3.375 0 0 Z " fill="#85D1AA" transform="translate(102,301)"/>
<path d="M0 0 C0.66 0 1.32 0 2 0 C1.625 2.9375 1.625 2.9375 1 6 C0.01 6.495 0.01 6.495 -1 7 C-1.625 5.1875 -1.625 5.1875 -2 3 C-1.34 2.01 -0.68 1.02 0 0 Z " fill="#E2FEF3" transform="translate(282,291)"/>
<path d="M0 0 C1.32 0 2.64 0 4 0 C3.1875 2.4375 3.1875 2.4375 2 5 C1.01 5.33 0.02 5.66 -1 6 C-0.67 4.02 -0.34 2.04 0 0 Z " fill="#66D39F" transform="translate(292,280)"/>
<path d="M0 0 C0.66 0.66 1.32 1.32 2 2 C0.68 4.64 -0.64 7.28 -2 10 C-3.39195915 5.82412255 -1.82323219 3.86525224 0 0 Z " fill="#D7FDEF" transform="translate(405,260)"/>
<path d="M0 0 C2.375 0.3125 2.375 0.3125 5 1 C5.66 1.99 6.32 2.98 7 4 C6.34 4.66 5.68 5.32 5 6 C3.35 4.02 1.7 2.04 0 0 Z " fill="#81D7AD" transform="translate(395,213)"/>
<path d="M0 0 C0.99 0.33 1.98 0.66 3 1 C1.37660195 2.70884005 -0.29319053 4.37446717 -2 6 C-2.66 6 -3.32 6 -4 6 C-2.84826645 3.53199953 -1.95216435 1.95216435 0 0 Z " fill="#6BCBA2" transform="translate(127,211)"/>
<path d="M0 0 C1 2 1 2 0.44140625 3.9453125 C0.15136719 4.66460937 -0.13867188 5.38390625 -0.4375 6.125 C-0.72496094 6.84945312 -1.01242187 7.57390625 -1.30859375 8.3203125 C-1.53675781 8.87460938 -1.76492188 9.42890625 -2 10 C-2.66 9.67 -3.32 9.34 -4 9 C-2.94124926 5.59687262 -1.99097846 2.98646769 0 0 Z " fill="#D7FEEF" transform="translate(335,158)"/>
</svg>
