<?xml version="1.0" encoding="UTF-8"?>
<svg version="1.1" xmlns="http://www.w3.org/2000/svg" width="512" height="512">
<path d="M0 0 C39.6 0 79.2 0 120 0 C126.6 29.37 133.2 58.74 140 89 C186.53 89.33 233.06 89.66 281 90 C282.65 93.63 284.3 97.26 286 101 C287.40163135 103.8430253 288.81062339 106.67660742 290.25 109.5 C293.86702128 116.60106383 293.86702128 116.60106383 295 120 C280.48 120 265.96 120 251 120 C251.33 120.66 251.66 121.32 252 122 C252.20268488 123.48636333 252.35493177 124.97977286 252.48071289 126.47460938 C252.56072037 127.40317749 252.64072784 128.33174561 252.72315979 129.28845215 C252.84666054 130.80082458 252.84666054 130.80082458 252.97265625 132.34375 C253.1037101 133.90204529 253.1037101 133.90204529 253.2374115 135.49182129 C253.42178646 137.69750316 253.60406297 139.90336127 253.78442383 142.109375 C254.0591274 145.45887741 254.34254177 148.80755963 254.62695312 152.15625 C254.80521756 154.30203936 254.98296784 156.44787152 255.16015625 158.59375 C255.24451431 159.58580444 255.32887238 160.57785889 255.41578674 161.59997559 C255.49264206 162.55376099 255.56949738 163.50754639 255.64868164 164.49023438 C255.71672501 165.31471069 255.78476837 166.13918701 255.85487366 166.98864746 C256.06366337 171.32100656 256 175.66261271 256 180 C276.46 180 296.92 180 318 180 C318 176.7 318 173.4 318 170 C318.11242881 168.06807842 318.25183607 166.13720075 318.4375 164.2109375 C318.52773438 163.25058594 318.61796875 162.29023438 318.7109375 161.30078125 C318.80632812 160.33527344 318.90171875 159.36976563 319 158.375 C319.09539062 157.37082031 319.19078125 156.36664063 319.2890625 155.33203125 C319.52186665 152.88758764 319.7589064 150.4436375 320 148 C324.21215665 149.46610977 327.45143649 151.58771326 331.0625 154.1875 C337.17943666 158.53171922 343.46486662 162.29938231 350 166 C349.67 170.62 349.34 175.24 349 180 C357.87573164 179.91433834 366.75127525 179.82050571 375.62676334 179.71247292 C379.74845609 179.66262629 383.87012464 179.61629567 387.99194336 179.578125 C391.97319166 179.54112465 395.95423168 179.49472562 399.93530083 179.44193649 C401.45062018 179.42347063 402.96598406 179.40833415 404.48137093 179.39665604 C406.61157473 179.37965893 408.74130959 179.35059376 410.87133789 179.31884766 C412.68668785 179.29886215 412.68668785 179.29886215 414.53871155 179.2784729 C418.25268538 178.97967057 421.45026253 178.10716517 425 177 C427.58242794 176.4925476 430.15797893 176.01167829 432.75 175.5625 C439.27792769 174.39060618 445.63998049 172.89992108 452 171 C451.3672955 177.13774863 450.1389531 182.91389799 448.57910156 188.87817383 C448.33339417 189.83393311 448.08768677 190.78969238 447.83453369 191.77441406 C447.02463215 194.91986286 446.20768808 198.06343585 445.390625 201.20703125 C444.82068441 203.41441655 444.25117255 205.62191259 443.68206787 207.82951355 C442.18252769 213.64135953 440.67695064 219.45162535 439.17016602 225.26159668 C437.65389342 231.11286407 436.14371036 236.96570234 434.6328125 242.81835938 C431.66989011 254.28929128 428.70463678 265.75959759 425.72053528 277.22504044 C424.99075032 280.03562281 424.26610009 282.84749708 423.54187012 285.65951538 C423.0876307 287.41196437 422.63325144 289.16437712 422.17871094 290.91674805 C421.97219028 291.72373799 421.76566963 292.53072794 421.55289078 293.36217213 C420.1135791 298.8864209 420.1135791 298.8864209 419 300 C417.50014463 300.10000604 415.99559001 300.1303033 414.49240685 300.13307858 C413.02241928 300.13944014 413.02241928 300.13944014 411.522735 300.14593023 C409.88839539 300.14535103 409.88839539 300.14535103 408.22103882 300.14476013 C407.07356159 300.14828698 405.92608436 300.15181382 404.74383509 300.15544754 C401.54435878 300.16431468 398.34491104 300.16870169 395.1454246 300.17129052 C391.70014126 300.17517418 388.25487384 300.18481219 384.80960083 300.19384766 C378.83406268 300.20880963 372.8585258 300.22034389 366.88297653 300.22979546 C358.23561157 300.24365108 349.588276 300.264837 340.94093211 300.28822399 C326.90252289 300.3261752 312.86410833 300.3611304 298.82568359 300.39282227 C297.9847319 300.39472276 297.14378021 300.39662325 296.27734514 300.39858133 C284.35135723 300.42539513 272.42536523 300.44927166 260.49936886 300.47196633 C259.66023632 300.47356363 258.82110377 300.47516094 257.95654297 300.47680664 C256.69937466 300.47919684 256.69937466 300.47919684 255.41680901 300.48163532 C241.43959862 300.50840801 227.46241936 300.5428118 213.48524249 300.58346039 C204.86120962 300.60823361 196.23721026 300.62656134 187.61314745 300.636616 C181.70044518 300.64401054 175.78778783 300.65854223 169.87511532 300.67868023 C166.46367505 300.69006501 163.05230723 300.69820617 159.64084625 300.69767189 C155.94075999 300.69875277 152.24090913 300.71198641 148.54086304 300.72825623 C147.46468763 300.72563937 146.38851222 300.72302252 145.27972543 300.72032636 C135.45829581 300.77125936 135.45829581 300.77125936 127.125 305.5 C123.66527655 309.57026289 123.71766259 312.31892657 123.78515625 317.5234375 C124.06684509 320.77054159 124.84857018 322.55182123 127 325 C131.73935099 328.49215336 136.2935467 329.12090322 142.06618977 329.1386652 C143.06891275 329.14413964 144.07163573 329.14961409 145.10474426 329.15525442 C146.74627834 329.15672158 146.74627834 329.15672158 148.42097473 329.15821838 C150.17310155 329.16562535 150.17310155 329.16562535 151.96062487 329.17318195 C155.19877857 329.18588205 158.43690907 329.19417444 161.67508018 329.20060861 C165.1685616 329.20862312 168.66202129 329.22231728 172.15548706 329.23532104 C178.20681387 329.25706888 184.2581429 329.27521956 190.3094883 329.29092598 C199.05871376 329.31364002 207.80791514 329.34178073 216.55712017 329.37124526 C230.75218081 329.41890235 244.94725129 329.46217164 259.14233398 329.50268555 C272.93140428 329.54205005 286.72046583 329.58347857 300.50952148 329.62768555 C301.35950161 329.63040982 302.20948173 329.63313409 303.08521882 329.63594092 C307.34932607 329.64962055 311.61343318 329.6633408 315.87754023 329.67708123 C351.25167551 329.79101643 386.62582967 329.89756191 422 330 C422 339.9 422 349.8 422 360 C411.44 360 400.88 360 390 360 C390.66 361.98 391.32 363.96 392 366 C393.8511727 379.40662046 391.72350099 391.91403252 383.625 402.9375 C376.37523187 411.44472256 366.43691127 419.12651905 354.91625977 420.19287109 C340.37140473 420.71956945 328.47150158 419.643255 316.921875 409.80078125 C309.52611415 402.87101346 302.57709527 393.35478773 301.85473633 382.89697266 C301.83008685 380.47284249 301.81434776 378.04926469 301.8125 375.625 C301.80025391 374.78710938 301.78800781 373.94921875 301.77539062 373.0859375 C301.77345703 372.26609375 301.77152344 371.44625 301.76953125 370.6015625 C301.76542236 369.86244629 301.76131348 369.12333008 301.75708008 368.36181641 C302 366 302 366 304 360 C282.88 360 261.76 360 240 360 C240.66 361.98 241.32 363.96 242 366 C243.8511727 379.40662046 241.72350099 391.91403252 233.625 402.9375 C226.37523187 411.44472256 216.43691127 419.12651905 204.91625977 420.19287109 C190.37140473 420.71956945 178.47150158 419.643255 166.921875 409.80078125 C159.52611415 402.87101346 152.57709527 393.35478773 151.85473633 382.89697266 C151.83008685 380.47284249 151.81434776 378.04926469 151.8125 375.625 C151.80025391 374.78710938 151.78800781 373.94921875 151.77539062 373.0859375 C151.77345703 372.26609375 151.77152344 371.44625 151.76953125 370.6015625 C151.76542236 369.86244629 151.76131348 369.12333008 151.75708008 368.36181641 C152.06283907 365.38904001 152.98249417 362.80022039 154 360 C152.87525269 360.03927612 152.87525269 360.03927612 151.7277832 360.0793457 C118.95336437 361.07418897 118.95336437 361.07418897 105 348 C96.67782651 340.12504611 91.97516844 329.54333675 91.65649414 318.1965332 C91.47569154 303.07498828 95.07935913 292.42724516 105.58203125 281.328125 C112.59694272 274.70577549 122.1145143 270.11665641 131.765625 269.68359375 C132.65507812 269.64169922 133.54453125 269.59980469 134.4609375 269.55664062 C135.38132813 269.51732422 136.30171875 269.47800781 137.25 269.4375 C138.18585938 269.39431641 139.12171875 269.35113281 140.0859375 269.30664062 C142.39048641 269.2008195 144.69513839 269.09873443 147 269 C146.82921432 268.23146446 146.65842865 267.46292892 146.48246765 266.67110443 C140.58393351 240.12770081 134.68539937 213.58429718 128.78686523 187.04089355 C128.58863977 186.14888056 128.39041431 185.25686756 128.18618202 184.33782387 C127.7875778 182.54410168 127.38897626 180.75037889 126.99037743 178.9566555 C125.99687291 174.48582959 125.00332148 170.01501412 124.00967407 165.54421997 C122.22406907 157.5098966 120.4387879 149.47550205 118.65527534 141.44071388 C117.66885151 136.99688308 116.68215418 132.55311303 115.6953125 128.109375 C115.50133251 127.23585766 115.30735252 126.36234032 115.10749435 125.46235275 C112.36051474 113.09491599 109.5981607 100.73099297 106.82579613 88.36922359 C105.69163456 83.30949464 104.56017758 78.24916013 103.42883015 73.18880129 C102.36702367 68.44110461 101.30060518 63.69447523 100.23065567 58.94860744 C99.57893296 56.05278071 98.93157401 53.15599166 98.28544998 50.25891113 C97.84542249 48.29227208 97.40001371 46.32683947 96.95443726 44.3614502 C96.69466095 43.19283447 96.43488464 42.02421875 96.16723633 40.82019043 C95.94030594 39.81010674 95.71337555 38.80002304 95.47956848 37.75933075 C95 35 95 35 95 30 C63.65 30 32.3 30 0 30 C0 20.1 0 10.2 0 0 Z M146 120 C148.124375 129.714375 150.24875 139.42875 152.4375 149.4375 C153.1070874 152.50861084 153.7766748 155.57972168 154.46655273 158.74389648 C154.99693843 161.16136024 155.52759958 163.57876358 156.05859375 165.99609375 C156.47195984 167.89929382 156.47195984 167.89929382 156.89367676 169.84094238 C157.2893988 171.6375531 157.2893988 171.6375531 157.69311523 173.47045898 C158.03619972 175.03932106 158.03619972 175.03932106 158.38621521 176.63987732 C158.77192934 178.94071918 158.77192934 178.94071918 160 180 C162.02494231 180.09409479 164.0531987 180.11743122 166.08032227 180.11352539 C167.38159561 180.11344986 168.68286896 180.11337433 170.02357483 180.11329651 C171.45451902 180.10818909 172.88546282 180.10297308 174.31640625 180.09765625 C175.7722926 180.09579203 177.22817957 180.09436815 178.68406677 180.09336853 C182.52279379 180.08954365 186.36148319 180.07971364 190.20019531 180.06866455 C194.11457816 180.05844978 198.02896706 180.05387077 201.94335938 180.04882812 C209.62892343 180.03809134 217.31445645 180.02101529 225 180 C224.45162858 167.75518886 223.73788961 155.54328451 222.69775391 143.33007812 C222.49528155 140.94440389 222.30014239 138.55819708 222.10546875 136.171875 C221.9769884 134.63538099 221.84809877 133.09892114 221.71875 131.5625 C221.661427 130.85843018 221.604104 130.15436035 221.54504395 129.42895508 C221.26144666 126.15178616 220.80177657 123.20710627 220 120 C195.58 120 171.16 120 146 120 Z M166 210 C168.124375 219.714375 170.24875 229.42875 172.4375 239.4375 C173.1070874 242.50861084 173.7766748 245.57972168 174.46655273 248.74389648 C174.99693843 251.16136024 175.52759958 253.57876358 176.05859375 255.99609375 C176.47195984 257.89929382 176.47195984 257.89929382 176.89367676 259.84094238 C177.2893988 261.6375531 177.2893988 261.6375531 177.69311523 263.47045898 C178.03619972 265.03932106 178.03619972 265.03932106 178.38621521 266.63987732 C178.77192934 268.94071918 178.77192934 268.94071918 180 270 C181.65738443 270.09346915 183.31874644 270.11744977 184.97875977 270.11352539 C186.05468384 270.11340454 187.13060791 270.11328369 188.23913574 270.11315918 C189.37838501 270.10804321 190.51763428 270.10292725 191.69140625 270.09765625 C192.73228394 270.09664917 193.77316162 270.09564209 194.84558105 270.09460449 C198.75123184 270.08935401 202.65686697 270.07539289 206.5625 270.0625 C215.286875 270.041875 224.01125 270.02125 233 270 C231.35 250.2 229.7 230.4 228 210 C207.54 210 187.08 210 166 210 Z M259 210 C259.6130541 222.26108197 260.26132936 234.44754471 261.30224609 246.66992188 C261.50471845 249.05559611 261.69985761 251.44180292 261.89453125 253.828125 C262.0230116 255.36461901 262.15190123 256.90107886 262.28125 258.4375 C262.338573 259.14156982 262.395896 259.84563965 262.45495605 260.57104492 C262.73855334 263.84821384 263.19822343 266.79289373 264 270 C279.18 270 294.36 270 310 270 C311.60830185 257.43309658 311.60830185 257.43309658 312.8515625 244.84375 C312.91532074 244.08630493 312.97907898 243.32885986 313.04476929 242.54846191 C313.17567267 240.98296345 313.30497309 239.41733008 313.43261719 237.8515625 C313.62716681 235.47351436 313.82891831 233.09614737 314.03125 230.71875 C314.15927939 229.17711859 314.28689871 227.63545305 314.4140625 226.09375 C314.47340973 225.3977771 314.53275696 224.7018042 314.59390259 223.98474121 C314.97139625 219.27723994 315 214.75585189 315 210 C296.52 210 278.04 210 259 210 Z M346 210 C344.35 229.8 342.7 249.6 341 270 C358.82 270 376.64 270 395 270 C399.02877596 254.94510036 403.05361585 239.88923504 407 224.8125 C407.30236572 223.6680542 407.60473145 222.5236084 407.91625977 221.34448242 C408.32896118 219.76050659 408.32896118 219.76050659 408.75 218.14453125 C409.11351562 216.75778198 409.11351562 216.75778198 409.484375 215.34301758 C410.10746292 212.91153203 410.10746292 212.91153203 410 210 C388.88 210 367.76 210 346 210 Z M184.125 367.125 C182.43515749 371.44348642 182.34039017 375.4267052 183 380 C185.16298837 384.40608743 187.39680479 387.1987497 192 389 C197.04325384 389.68426057 200.83076884 389.5739862 205.4375 387.3125 C208.79656012 384.28115306 210.69355631 382.25860352 211.31640625 377.66796875 C211.58213652 371.95048191 210.96847152 368.39749547 207 364 C203.16286804 360.61429533 199.36598538 360.48708828 194.4375 360.6484375 C189.77473854 361.32095117 187.14809708 363.69882331 184.125 367.125 Z M334.125 367.125 C332.43515749 371.44348642 332.34039017 375.4267052 333 380 C335.16298837 384.40608743 337.39680479 387.1987497 342 389 C347.04325384 389.68426057 350.83076884 389.5739862 355.4375 387.3125 C358.79656012 384.28115306 360.69355631 382.25860352 361.31640625 377.66796875 C361.58213652 371.95048191 360.96847152 368.39749547 357 364 C353.16286804 360.61429533 349.36598538 360.48708828 344.4375 360.6484375 C339.77473854 361.32095117 337.14809708 363.69882331 334.125 367.125 Z " fill="#EFFFFB" transform="translate(0,76)"/>
<path d="M0 0 C1.1034375 0.350625 2.206875 0.70125 3.34375 1.0625 C30.5421571 10.56873937 51.67817839 30.59010284 64.25 56.3125 C74.61412561 79.81221656 77.25395683 108.45533889 69 133 C68.649375 134.1034375 68.29875 135.206875 67.9375 136.34375 C58.43126063 163.5421571 38.40989716 184.67817839 12.6875 197.25 C-13.54688866 208.80600678 -44.15100462 209.91150928 -70.94775391 199.6015625 C-97.52152838 188.75248811 -118.053779 168.80650806 -129.65234375 142.5078125 C-138.49251398 119.49774622 -140.95166641 92.64574486 -133 69 C-132.649375 67.8965625 -132.29875 66.793125 -131.9375 65.65625 C-122.43126063 38.4578429 -102.40989716 17.32182161 -76.6875 4.75 C-53.18778344 -5.61412561 -24.54466111 -8.25395683 0 0 Z M-47 56 C-47 65.9 -47 75.8 -47 86 C-56.9 86 -66.8 86 -77 86 C-77 95.9 -77 105.8 -77 116 C-67.1 116 -57.2 116 -47 116 C-47 125.9 -47 135.8 -47 146 C-37.1 146 -27.2 146 -17 146 C-17 136.1 -17 126.2 -17 116 C-7.1 116 2.8 116 13 116 C13 106.1 13 96.2 13 86 C3.1 86 -6.8 86 -17 86 C-17 76.1 -17 66.2 -17 56 C-26.9 56 -36.8 56 -47 56 Z " fill="#EFFFFB" transform="translate(439,20)"/>
</svg>
